<svg width="49" height="49" viewBox="0 0 49 49" fill="none" xmlns="http://www.w3.org/2000/svg">
<path d="M31.3882 32.7032C35.9187 32.7032 39.5913 29.0305 39.5913 24.5C39.5913 19.9695 35.9187 16.2969 31.3882 16.2969C26.8577 16.2969 23.1851 19.9695 23.1851 24.5C23.1851 29.0305 26.8577 32.7032 31.3882 32.7032Z" stroke="black" stroke-linecap="round" stroke-linejoin="round"/>
<path d="M15.1208 18.7878C13.6059 18.7878 12.153 19.3897 11.0817 20.4609C10.0105 21.5321 9.40869 22.985 9.40869 24.5C9.40869 26.0149 10.0105 27.4678 11.0817 28.5391C12.153 29.6103 13.6059 30.2121 15.1208 30.2121H25.1559" stroke="black" stroke-linecap="round" stroke-linejoin="round"/>
<path d="M15.1206 18.7878H25.1928" stroke="black"/>
<path d="M24.5 48C37.4787 48 48 37.4787 48 24.5C48 11.5213 37.4787 1 24.5 1C11.5213 1 1 11.5213 1 24.5C1 37.4787 11.5213 48 24.5 48Z" stroke="black" stroke-linecap="round" stroke-linejoin="round"/>
</svg>
