<svg width="40" height="40" viewBox="0 0 40 40" fill="none" xmlns="http://www.w3.org/2000/svg">
<path d="M39.3708 18.2294L27.3285 5.16882C24.2431 1.85541 20.0632 -0.00360064 15.7065 5.2359e-06C11.3498 0.00361112 7.17257 1.86954 4.09196 5.18806L1.63173 7.91517C1.56442 7.98731 1.51115 8.07317 1.47501 8.16775C1.43888 8.26233 1.42062 8.36372 1.4213 8.466C1.42198 8.56827 1.44158 8.66937 1.47896 8.76339C1.51634 8.8574 1.57075 8.94244 1.639 9.01354C1.70726 9.08463 1.78799 9.14035 1.87647 9.17743C1.96495 9.21452 2.05941 9.23223 2.15432 9.22952C2.24923 9.22682 2.34269 9.20375 2.42923 9.16168C2.51576 9.1196 2.59364 9.05936 2.65831 8.98447L5.10962 6.25736C6.27288 5.00223 7.6205 3.96254 9.09812 3.18022L18.2749 13.0732L0.630138 32.0784C0.430406 32.2928 0.271929 32.5476 0.163796 32.8281C0.0556627 33.1086 0 33.4094 0 33.7131C0 34.0169 0.0556627 34.3176 0.163796 34.5982C0.271929 34.8787 0.430406 35.1334 0.630138 35.3479L4.32406 39.3212C4.5231 39.5364 4.75961 39.7071 5.02002 39.8236C5.28044 39.94 5.55964 40 5.84162 40C6.12359 40 6.40279 39.94 6.66321 39.8236C6.92363 39.7071 7.16014 39.5364 7.35918 39.3212L24.9986 20.3103L28.064 23.6143L31.217 27.0107C31.416 27.2259 31.6525 27.3966 31.913 27.5131C32.1734 27.6296 32.4526 27.6895 32.7346 27.6895C33.0165 27.6895 33.2957 27.6296 33.5562 27.5131C33.8166 27.3966 34.0531 27.2259 34.2521 27.0107L39.3743 21.493C39.7756 21.0597 40.0007 20.4725 40 19.8604C39.9993 19.2483 39.773 18.6616 39.3708 18.2294ZM6.34152 38.2307C6.27519 38.3023 6.19643 38.359 6.10974 38.3977C6.02304 38.4364 5.93011 38.4564 5.83626 38.4564C5.74241 38.4564 5.64948 38.4364 5.56278 38.3977C5.47609 38.359 5.39733 38.3023 5.331 38.2307L1.64065 34.2555C1.57425 34.184 1.52158 34.0992 1.48564 34.0058C1.4497 33.9124 1.4312 33.8123 1.4312 33.7112C1.4312 33.6101 1.4497 33.51 1.48564 33.4166C1.52158 33.3232 1.57425 33.2384 1.64065 33.1669L14.2864 19.541L18.989 24.6125L6.34152 38.2307ZM24.4933 18.6794L19.9996 23.5201L15.2951 18.4582L19.7907 13.6117C19.8571 13.5403 19.9097 13.4554 19.9457 13.362C19.9816 13.2687 20.0001 13.1685 20.0001 13.0675C20.0001 12.9664 19.9816 12.8663 19.9457 12.7729C19.9097 12.6795 19.8571 12.5946 19.7907 12.5232L10.5068 2.52249C13.1965 1.45387 16.1141 1.23699 18.9146 1.89746C21.7151 2.55793 24.2816 4.06815 26.3108 6.24967L34.702 15.3561L28.5693 21.9815L25.5038 18.6794C25.4375 18.6079 25.3587 18.5511 25.2721 18.5124C25.1854 18.4737 25.0924 18.4538 24.9986 18.4538C24.9047 18.4538 24.8118 18.4737 24.7251 18.5124C24.6384 18.5511 24.5596 18.6079 24.4933 18.6794ZM38.3585 20.4103L33.238 25.928C33.1717 25.9995 33.0929 26.0562 33.0062 26.0949C32.9196 26.1337 32.8266 26.1536 32.7328 26.1536C32.6389 26.1536 32.546 26.1337 32.4593 26.0949C32.3726 26.0562 32.2938 25.9995 32.2275 25.928L29.5798 23.0739L35.7197 16.4581L38.3585 19.3198C38.4915 19.4639 38.5661 19.6589 38.5661 19.8622C38.5661 20.0654 38.4915 20.2604 38.3585 20.4045V20.4103Z" fill="#1C1C1E"/>
</svg>
