<svg width="40" height="40" viewBox="0 0 40 40" fill="none" xmlns="http://www.w3.org/2000/svg">
<path d="M40 20.0003C40 20.231 39.9084 20.4521 39.7453 20.6152C39.5822 20.7783 39.3611 20.8699 39.1304 20.8699H14.783C14.5523 20.8699 14.3312 20.7783 14.1681 20.6152C14.005 20.4521 13.9134 20.231 13.9134 20.0003C13.9134 19.7697 14.005 19.5485 14.1681 19.3855C14.3312 19.2224 14.5523 19.1308 14.783 19.1308H39.1304C39.3611 19.1308 39.5822 19.2224 39.7453 19.3855C39.9084 19.5485 40 19.7697 40 20.0003ZM14.783 6.95705H39.1304C39.3611 6.95705 39.5822 6.86543 39.7453 6.70236C39.9084 6.53929 40 6.31811 40 6.08749C40 5.85687 39.9084 5.6357 39.7453 5.47263C39.5822 5.30956 39.3611 5.21794 39.1304 5.21794H14.783C14.5523 5.21794 14.3312 5.30956 14.1681 5.47263C14.005 5.6357 13.9134 5.85687 13.9134 6.08749C13.9134 6.31811 14.005 6.53929 14.1681 6.70236C14.3312 6.86543 14.5523 6.95705 14.783 6.95705ZM39.1304 33.0436H14.783C14.5523 33.0436 14.3312 33.1353 14.1681 33.2983C14.005 33.4614 13.9134 33.6826 13.9134 33.9132C13.9134 34.1438 14.005 34.365 14.1681 34.5281C14.3312 34.6911 14.5523 34.7827 14.783 34.7827H39.1304C39.3611 34.7827 39.5822 34.6911 39.7453 34.5281C39.9084 34.365 40 34.1438 40 33.9132C40 33.6826 39.9084 33.4614 39.7453 33.2983C39.5822 33.1353 39.3611 33.0436 39.1304 33.0436ZM1.25924 3.38753L3.47877 2.27668V14.783C3.47877 15.0136 3.57038 15.2348 3.73346 15.3979C3.89653 15.561 4.1177 15.6526 4.34832 15.6526C4.57894 15.6526 4.80012 15.561 4.96319 15.3979C5.12626 15.2348 5.21788 15.0136 5.21788 14.783V0.870176C5.21798 0.721878 5.18016 0.576018 5.108 0.446459C5.03585 0.316899 4.93176 0.207947 4.80562 0.129958C4.67949 0.051968 4.5355 0.0075332 4.38736 0.000876585C4.23921 -0.00578003 4.09182 0.0255624 3.9592 0.0919255L0.480986 1.83103C0.274581 1.93423 0.117627 2.1152 0.044652 2.33413C-0.0283231 2.55305 -0.0113417 2.792 0.0918607 2.99841C0.195063 3.20481 0.376033 3.36177 0.594958 3.43474C0.813884 3.50772 1.05283 3.49073 1.25924 3.38753ZM7.82654 36.5219H2.60922L7.79393 29.5828C8.14828 29.1329 8.40799 28.6159 8.55742 28.063C8.70685 27.5101 8.74293 26.9327 8.66348 26.3655C8.5832 25.7919 8.38775 25.2404 8.08888 24.7443C7.79001 24.2482 7.39391 23.8177 6.92437 23.4786C5.97863 22.7912 4.80377 22.496 3.64545 22.6549C2.48714 22.8137 1.43507 23.4142 0.709243 24.3307C0.432469 24.6844 0.212446 25.0789 0.0570786 25.5003C0.000929489 25.7108 0.0258417 25.9347 0.126885 26.1277C0.227928 26.3207 0.397741 26.4687 0.602721 26.5425C0.807701 26.6163 1.03291 26.6105 1.23379 26.5262C1.43467 26.4419 1.59659 26.2852 1.68749 26.0872C1.78004 25.8355 1.91053 25.5995 2.07444 25.3872C2.52065 24.8258 3.16666 24.4587 3.87731 24.3627C4.58797 24.2667 5.30823 24.4492 5.88743 24.872C6.16893 25.0745 6.40664 25.3318 6.58631 25.6284C6.76599 25.925 6.88393 26.2548 6.93307 26.5981C6.98047 26.9375 6.95848 27.2831 6.86842 27.6138C6.77837 27.9444 6.62213 28.2534 6.40916 28.522L0.174468 36.8718C0.0782002 37.001 0.0197198 37.1544 0.00555104 37.3149C-0.00861777 37.4754 0.0220822 37.6367 0.0942266 37.7808C0.166371 37.9248 0.277123 38.046 0.414125 38.1308C0.551128 38.2156 0.708993 38.2607 0.870111 38.261H7.82654C8.05716 38.261 8.27833 38.1693 8.4414 38.0063C8.60448 37.8432 8.69609 37.622 8.69609 37.3914C8.69609 37.1608 8.60448 36.9396 8.4414 36.7765C8.27833 36.6135 8.05716 36.5219 7.82654 36.5219Z" fill="black"/>
</svg>
