<svg width="40" height="40" viewBox="0 0 29 50" fill="none" xmlns="http://www.w3.org/2000/svg">
<path d="M18.1138 22.4771H29V18.3486H20.9246L16.4631 10.711C15.7938 9.56422 14.5892 8.7844 13.2062 8.7844C12.8046 8.7844 12.4477 8.85321 12.0908 8.96789L0 12.844V24.7706H4.01538V16.3532L8.72231 14.8395L0 50H4.01538L10.4177 31.3991L15.6154 38.5321V50H19.6308V35.2982L14.0762 24.8853L15.7046 18.3028M17.8462 8.25688C20.0769 8.25688 21.8615 6.42202 21.8615 4.12844C21.8615 1.83486 20.0769 0 17.8462 0C15.6154 0 13.8308 1.83486 13.8308 4.12844C13.8308 6.42202 15.6154 8.25688 17.8462 8.25688Z" fill="#1C1C1E"/>
</svg>
