<svg width="40" height="40" viewBox="0 0 40 40" fill="none" xmlns="http://www.w3.org/2000/svg">
<path fill-rule="evenodd" clip-rule="evenodd" d="M20 38C29.941 38 38 29.941 38 20C38 10.059 29.941 2 20 2C10.059 2 2 10.059 2 20C2 29.941 10.059 38 20 38ZM20 40C31.046 40 40 31.046 40 20C40 8.954 31.046 0 20 0C8.954 0 0 8.954 0 20C0 31.046 8.954 40 20 40Z" fill="#1C1C1E"/>
<path fill-rule="evenodd" clip-rule="evenodd" d="M30.6697 12.259C30.8664 12.4367 30.9845 12.6853 30.998 12.9501C31.0115 13.2149 30.9193 13.4742 30.7417 13.671L17.3857 28.432L9.30966 20.723C9.12832 20.5377 9.02605 20.2891 9.02443 20.0299C9.02282 19.7706 9.12197 19.5208 9.30099 19.3332C9.48001 19.1456 9.72488 19.0349 9.98396 19.0244C10.243 19.014 10.4961 19.1045 10.6897 19.277L17.2797 25.567L29.2587 12.33C29.3468 12.2326 29.4533 12.1535 29.572 12.0972C29.6908 12.041 29.8194 12.0087 29.9507 12.0022C30.0819 11.9957 30.2131 12.0151 30.3368 12.0594C30.4605 12.1036 30.5743 12.1718 30.6717 12.26" fill="#1C1C1E"/>
</svg>
