<?xml version="1.0" encoding="UTF-8"?>
<svg xmlns="http://www.w3.org/2000/svg" xmlns:xlink="http://www.w3.org/1999/xlink" width="40px" height="40px" viewBox="0 0 40 40" version="1.1">
<g id="surface1">
<path style=" stroke:none;fill-rule:nonzero;fill:rgb(10.980392%,10.980392%,11.764706%);fill-opacity:1;" d="M 13.332031 25 C 12.554688 25 11.898438 24.730469 11.359375 24.195312 C 10.820312 23.65625 10.554688 23 10.554688 22.222656 C 10.558594 21.445312 10.824219 20.789062 11.363281 20.25 C 11.898438 19.710938 12.554688 19.441406 13.332031 19.445312 C 14.109375 19.449219 14.769531 19.714844 15.304688 20.25 C 15.84375 20.785156 16.113281 21.441406 16.109375 22.222656 C 16.109375 23 15.839844 23.660156 15.304688 24.195312 C 14.769531 24.730469 14.109375 25 13.332031 25 Z M 26.667969 25 C 25.890625 25 25.230469 24.730469 24.695312 24.195312 C 24.15625 23.65625 23.886719 23 23.890625 22.222656 C 23.890625 21.445312 24.160156 20.789062 24.695312 20.25 C 25.230469 19.710938 25.890625 19.441406 26.667969 19.445312 C 27.445312 19.449219 28.101562 19.714844 28.640625 20.25 C 29.175781 20.785156 29.445312 21.441406 29.445312 22.222656 C 29.441406 23 29.175781 23.660156 28.636719 24.195312 C 28.101562 24.730469 27.445312 25 26.667969 25 Z M 20 37.777344 C 24.964844 37.777344 29.167969 36.054688 32.609375 32.609375 C 36.054688 29.167969 37.777344 24.964844 37.777344 20 C 37.777344 19.109375 37.722656 18.25 37.609375 17.417969 C 37.5 16.585938 37.296875 15.777344 37 15 C 36.222656 15.183594 35.445312 15.324219 34.667969 15.417969 C 33.890625 15.511719 33.074219 15.558594 32.222656 15.554688 C 28.851562 15.554688 25.667969 14.832031 22.667969 13.390625 C 19.667969 11.945312 17.109375 9.925781 15 7.332031 C 13.816406 10.222656 12.121094 12.730469 9.917969 14.863281 C 7.714844 16.992188 5.148438 18.59375 2.222656 19.667969 L 2.222656 20 C 2.222656 24.964844 3.945312 29.167969 7.390625 32.609375 C 10.832031 36.054688 15.035156 37.777344 20 37.777344 Z M 20.007812 40 C 17.242188 40 14.640625 39.476562 12.207031 38.425781 C 9.773438 37.375 7.65625 35.953125 5.851562 34.152344 C 4.050781 32.355469 2.625 30.238281 1.574219 27.804688 C 0.523438 25.371094 0 22.769531 0 20.007812 C 0 17.242188 0.523438 14.640625 1.574219 12.207031 C 2.625 9.769531 4.050781 7.652344 5.84375 5.851562 C 7.640625 4.054688 9.757812 2.628906 12.195312 1.574219 C 14.628906 0.523438 17.230469 0 19.992188 0 C 22.757812 0 25.355469 0.527344 27.792969 1.574219 C 30.230469 2.625 32.347656 4.046875 34.148438 5.847656 C 35.945312 7.644531 37.371094 9.761719 38.425781 12.195312 C 39.476562 14.628906 40.003906 17.230469 40 19.992188 C 39.996094 22.757812 39.472656 25.359375 38.425781 27.792969 C 37.378906 30.230469 35.957031 32.347656 34.152344 34.148438 C 32.347656 35.945312 30.230469 37.371094 27.804688 38.425781 C 25.378906 39.476562 22.777344 40 20.007812 40 Z M 14.90625 2.925781 C 16.71875 6.546875 19.277344 9.183594 22.585938 10.84375 C 25.894531 12.503906 29.109375 13.332031 32.222656 13.332031 C 32.914062 13.332031 33.589844 13.296875 34.257812 13.230469 C 34.925781 13.160156 35.589844 13.042969 36.25 12.882812 C 34.835938 9.582031 32.644531 6.976562 29.679688 5.074219 C 26.714844 3.171875 23.488281 2.222656 20 2.222656 C 19.023438 2.222656 18.132812 2.277344 17.324219 2.390625 C 16.515625 2.503906 15.710938 2.683594 14.90625 2.925781 Z M 2.527344 17.125 C 4.8125 16.105469 7.132812 14.441406 9.480469 12.125 C 11.828125 9.808594 13.195312 6.894531 13.585938 3.390625 C 10.613281 4.519531 8.152344 6.300781 6.203125 8.730469 C 4.257812 11.160156 3.03125 13.957031 2.527344 17.125 Z M 2.527344 17.125 "/>
</g>
</svg>
