<svg width="40" height="55" viewBox="0 0 40 55" fill="none" xmlns="http://www.w3.org/2000/svg">
<path fill-rule="evenodd" clip-rule="evenodd" d="M7.87431 29.3412C8.0533 29.3605 8.31216 29.3756 8.67978 29.3756C9.87766 29.3756 11.0232 29.6358 12.0118 30.2637C12.9031 30.8327 13.6011 31.6583 14.0138 32.6319C14.4585 33.6481 14.5921 34.7606 14.6306 35.6239C15.7294 35.7891 17.3734 35.7987 19.6948 35.7987C22.0162 35.7987 23.6602 35.7905 24.7589 35.6239C24.7975 34.7592 24.931 33.6481 25.3758 32.6305C25.7881 31.6572 26.4856 30.8315 27.3764 30.2623C28.3677 29.6358 29.5105 29.3756 30.7084 29.3756C31.076 29.3756 31.3362 29.3618 31.5152 29.3426L31.5318 29.2324C31.5979 28.7657 31.6281 28.0951 31.6281 27.0845C31.6281 24.5497 32.647 23.0268 33.2873 22.0658C33.414 21.8794 33.5213 21.7128 33.6095 21.566C34.1051 20.7178 34.8404 19.1675 34.8404 14.6954C34.8404 10.7561 33.089 7.8771 30.3766 5.89853C27.5856 3.86076 23.7125 2.75375 19.6948 2.75375C15.6771 2.75375 11.8053 3.86076 9.01161 5.89853C6.30054 7.8771 4.54916 10.7561 4.54916 14.6968C4.54916 19.1675 5.28441 20.7178 5.78008 21.5674C5.8682 21.7142 5.9756 21.8804 6.10227 22.0658C6.7439 23.0268 7.76141 24.5497 7.76141 27.0831C7.76141 28.0951 7.7917 28.7657 7.85779 29.231L7.87431 29.3412ZM5.00766 27.0831C5.00766 31.2124 5.46753 32.1294 8.67978 32.1294C11.892 32.1294 11.892 34.8831 11.892 36.7171C11.892 38.5525 15.1057 38.5525 19.6948 38.5525C24.2839 38.5525 27.4975 38.5525 27.4975 36.7171C27.4975 34.8817 27.4975 32.1294 30.7098 32.1294C33.922 32.1294 34.3805 31.2124 34.3819 27.0831C34.3819 25.4501 34.8845 24.6777 35.4917 23.7456C36.421 22.3191 37.5941 20.5196 37.5941 14.6968C37.5941 -4.89892 1.79541 -4.89892 1.79541 14.6968C1.79541 20.5196 2.96851 22.3205 3.8979 23.7456C4.5051 24.6777 5.00766 25.4501 5.00766 27.0831Z" fill="black"/>
<path fill-rule="evenodd" clip-rule="evenodd" d="M12.8146 22.0275C13.1797 22.0272 13.5298 21.8817 13.7878 21.6233C14.0457 21.3648 14.1904 21.0144 14.1901 20.6493C14.1897 20.2841 14.0443 19.934 13.7858 19.6761C13.5273 19.4181 13.177 19.2734 12.8118 19.2738C12.4466 19.2741 12.0966 19.4195 11.8386 19.678C11.5807 19.9365 11.436 20.2869 11.4363 20.652C11.4367 21.0172 11.5821 21.3673 11.8406 21.6252C12.099 21.8832 12.4494 22.0279 12.8146 22.0275ZM12.8159 24.7813C13.3584 24.7808 13.8954 24.6735 14.3964 24.4655C14.8974 24.2575 15.3525 23.9529 15.7357 23.569C16.119 23.1851 16.4229 22.7295 16.63 22.2282C16.8372 21.7269 16.9436 21.1896 16.9431 20.6472C16.9427 20.1048 16.8354 19.5677 16.6274 19.0667C16.4194 18.5658 16.1147 18.1107 15.7309 17.7274C15.347 17.3442 14.8914 17.0403 14.39 16.8331C13.8887 16.626 13.3515 16.5196 12.8091 16.52C11.7136 16.5209 10.6633 16.957 9.88928 17.7323C9.11528 18.5076 8.68097 19.5586 8.68188 20.6541C8.68279 21.7496 9.11886 22.7999 9.89415 23.5739C10.6694 24.3479 11.7204 24.7822 12.8159 24.7813ZM26.5833 22.0275C26.9485 22.0273 27.2986 21.8821 27.5567 21.6238C27.8148 21.3654 27.9597 21.0151 27.9595 20.65C27.9593 20.2848 27.8141 19.9346 27.5557 19.6766C27.2974 19.4185 26.9471 19.2736 26.5819 19.2738C26.2168 19.274 25.8666 19.4192 25.6085 19.6775C25.3505 19.9359 25.2056 20.2862 25.2057 20.6513C25.2059 21.0165 25.3512 21.3666 25.6095 21.6247C25.8679 21.8828 26.2181 22.0277 26.5833 22.0275ZM26.5861 24.7813C27.6816 24.7804 28.7319 24.3443 29.5058 23.569C30.2798 22.7937 30.7142 21.7427 30.7132 20.6472C30.7123 19.5517 30.2763 18.5014 29.501 17.7274C28.7257 16.9534 27.6747 16.5191 26.5792 16.52C26.0367 16.5205 25.4997 16.6278 24.9987 16.8358C24.4977 17.0438 24.0426 17.3484 23.6594 17.7323C22.8854 18.5076 22.4511 19.5586 22.452 20.6541C22.4529 21.7496 22.889 22.7999 23.6643 23.5739C24.4396 24.3479 25.4906 24.7822 26.5861 24.7813ZM15.1855 47.5066L0.00688453 52.3876L0.849531 55.0092L19.6962 48.9482L38.5511 54.9789L39.391 52.3559L24.2041 47.4983L39.3827 42.6173L38.5387 39.9957L19.6948 46.0567L0.839893 40.026L0 42.649L15.1855 47.5066Z" fill="black"/>
</svg>
