<svg width="47" height="44" viewBox="0 0 47 44" fill="none" xmlns="http://www.w3.org/2000/svg">
<path d="M19.7969 44C17.0495 44 14.4744 43.4964 12.0716 42.4893C9.66881 41.4822 7.5703 40.0977 5.77606 38.3361C3.98181 36.5744 2.57016 34.5148 1.54111 32.1572C0.512056 29.7997 -0.00164516 27.2729 3.9579e-06 24.577C0.00165308 21.881 0.51453 19.3526 1.53864 16.9918C2.56274 14.631 3.97357 12.5698 5.77111 10.8081C7.56865 9.04482 9.66716 7.6596 12.0666 6.65246C14.4661 5.64532 17.0404 5.14094 19.7895 5.13932C20.6553 5.13932 21.4905 5.19033 22.2953 5.29234C23.1001 5.39435 23.9139 5.54574 24.7368 5.74652V8.29675C23.9123 8.05388 23.0984 7.87172 22.2953 7.75028C21.4922 7.62884 20.6569 7.56812 19.7895 7.56812C14.9889 7.56812 10.9024 9.22293 7.5299 12.5326C4.15744 15.8422 2.47204 19.8546 2.47369 24.5697C2.47534 29.2848 4.16074 33.2971 7.5299 36.6068C10.8991 39.9164 14.9856 41.5712 19.7895 41.5712C24.5934 41.5712 28.6799 39.9164 32.0491 36.6068C35.4182 33.2971 37.1036 29.2815 37.1053 24.5599C37.1053 24.1211 37.0847 23.6726 37.0434 23.2144C37.0022 22.7562 36.9247 22.3052 36.8109 21.8616H39.3118C39.3942 22.2437 39.4602 22.6793 39.5097 23.1683C39.5559 23.6572 39.5789 24.1244 39.5789 24.5697C39.5789 27.2689 39.0661 29.7964 38.0403 32.1524C37.0146 34.5083 35.6046 36.5687 33.8103 38.3336C32.0144 40.0953 29.9167 41.4797 27.5173 42.4869C25.1178 43.4956 22.5443 44 19.7969 44ZM27.5717 33.9302L18.5526 25.0749V12.4257H21.0263V24.0645L29.3231 32.2106L27.5717 33.9302ZM37.1053 17.0015V9.71517H29.6842V7.28638H37.1053V0H39.5789V7.28638H47V9.71517H39.5789V17.0015H37.1053Z" fill="black"/>
</svg>
