<svg width="40" height="30" viewBox="0 0 40 30" fill="none" xmlns="http://www.w3.org/2000/svg">
<path d="M27.916 1.28191C27.7715 1.14108 27.6904 0.950081 27.6904 0.750924C27.6904 0.551767 27.7715 0.360766 27.916 0.219941C28.0604 0.0791151 28.2563 0 28.4606 0C28.6648 0 28.8607 0.0791151 29.0052 0.219941L39.774 10.7196C39.8456 10.7893 39.9025 10.872 39.9413 10.9632C39.98 11.0543 40 11.1519 40 11.2506C40 11.3492 39.98 11.4469 39.9413 11.538C39.9025 11.6291 39.8456 11.7119 39.774 11.7816L29.0052 22.2812C28.8607 22.4221 28.6648 22.5012 28.4606 22.5012C28.2563 22.5012 28.0604 22.4221 27.916 22.2812C27.7715 22.1404 27.6904 21.9494 27.6904 21.7503C27.6904 21.5511 27.7715 21.3601 27.916 21.2193L37.3726 12.0006H19.2301C9.45967 12.0006 1.53841 19.7238 1.53841 29.25C1.53841 29.4489 1.45737 29.6397 1.31311 29.7803C1.16886 29.921 0.97321 30 0.769204 30C0.565199 30 0.369549 29.921 0.225295 29.7803C0.0810411 29.6397 0 29.4489 0 29.25C0 18.8944 8.60894 10.5006 19.2301 10.5006H37.3726L27.916 1.28191Z" fill="black"/>
</svg>
