<svg width="40" height="40" viewBox="0 0 40 40" fill="none" xmlns="http://www.w3.org/2000/svg">
<path d="M36.417 3.0832C35.5683 2.30248 34.4445 1.89033 33.2923 1.9372C32.1401 1.98406 31.0535 2.48612 30.271 3.3332L15.938 17.6672L13.5 26.0002L21.833 23.5632L36.167 9.3332C36.6018 8.94419 36.9539 8.4718 37.2027 7.94408C37.4514 7.41635 37.5915 6.84405 37.6149 6.26112C37.6382 5.67819 37.5442 5.09651 37.3384 4.55061C37.1326 4.00471 36.8193 3.5057 36.417 3.0832Z" stroke="black" stroke-width="2" stroke-linecap="round" stroke-linejoin="round"/>
<path d="M19.75 1H3.083C2.53055 1 2.00073 1.21946 1.6101 1.6101C1.21946 2.00073 1 2.53055 1 3.083V36.417C1 36.9694 1.21946 37.4993 1.6101 37.8899C2.00073 38.2805 2.53055 38.5 3.083 38.5H36.417C36.9694 38.5 37.4993 38.2805 37.8899 37.8899C38.2805 37.4993 38.5 36.9694 38.5 36.417V19.75" stroke="black" stroke-width="2" stroke-linecap="round" stroke-linejoin="round"/>
</svg>
