<svg width="45" height="45" viewBox="0 0 45 45" fill="none" xmlns="http://www.w3.org/2000/svg">
<path d="M37.4569 37.807C38.2769 36.283 38.3909 32.779 38.3909 30.909C38.3909 27.171 34.1179 18.833 34.1179 18.833M28.5099 18.457C28.5099 18.457 32.7829 28.786 32.7829 31.844C32.7829 34.709 31.8479 39.322 31.8479 41.191M7.54389 37.826C6.72389 36.302 6.60889 32.779 6.60889 30.909C6.60889 27.171 11.0039 18.774 11.0039 18.774M17.2989 18.837C17.2989 18.837 12.2169 28.786 12.2169 31.844C12.2169 34.709 13.1519 39.321 13.1519 41.191" stroke="black" stroke-linecap="round" stroke-linejoin="round"/>
<path d="M26.7069 19.5253C27.0929 19.2043 28.8059 17.8503 31.2949 17.9963C33.3149 18.1143 34.6699 19.1493 35.1189 19.5263M9.87988 19.5253C10.2669 19.2043 11.9799 17.8503 14.4699 17.9963C16.4899 18.1143 17.8439 19.1493 18.2929 19.5263" stroke="black" stroke-linecap="round" stroke-linejoin="round"/>
<path d="M1 22.497C0.998 34.37 10.623 43.997 22.497 43.998C34.371 43.999 43.998 34.377 44 22.504V22.497C44 10.625 34.374 1 22.5 1C10.626 1 1 10.625 1 22.497Z" stroke="black" stroke-linecap="round" stroke-linejoin="round"/>
<path d="M18.0508 32.4051C18.0503 33.5851 18.5185 34.7169 19.3524 35.5516C20.1864 36.3864 21.3178 36.8556 22.4978 36.8561C23.6777 36.8567 24.8096 36.3884 25.6443 35.5545C26.479 34.7205 26.9482 33.5891 26.9488 32.4091V32.4051C26.9497 31.2253 26.4819 30.0934 25.6483 29.2585C24.8147 28.4236 23.6836 27.9541 22.5038 27.9531C21.324 27.9522 20.1921 28.42 19.3572 29.2536C18.5223 30.0872 18.0527 31.2183 18.0518 32.3981L18.0508 32.4051Z" stroke="black" stroke-linecap="round" stroke-linejoin="round"/>
</svg>
