<svg width="44" height="44" viewBox="0 0 44 44" fill="none" xmlns="http://www.w3.org/2000/svg">
<path d="M44 1.04762V13.619C44 13.8969 43.8896 14.1634 43.6932 14.3598C43.4967 14.5563 43.2302 14.6667 42.9524 14.6667C42.6745 14.6667 42.4081 14.5563 42.2116 14.3598C42.0151 14.1634 41.9048 13.8969 41.9048 13.619V3.57762L26.9317 18.5507C26.7351 18.7473 26.4685 18.8577 26.1905 18.8577C25.9125 18.8577 25.6459 18.7473 25.4493 18.5507C25.2527 18.3541 25.1423 18.0875 25.1423 17.8095C25.1423 17.5315 25.2527 17.2649 25.4493 17.0683L40.4224 2.09524H30.381C30.1031 2.09524 29.8366 1.98486 29.6402 1.7884C29.4437 1.59193 29.3333 1.32546 29.3333 1.04762C29.3333 0.769773 29.4437 0.503307 29.6402 0.306841C29.8366 0.110374 30.1031 0 30.381 0H42.9524C43.2302 0 43.4967 0.110374 43.6932 0.306841C43.8896 0.503307 44 0.769773 44 1.04762ZM17.0683 25.4493L2.09524 40.4224V30.381C2.09524 30.1031 1.98486 29.8366 1.7884 29.6402C1.59193 29.4437 1.32546 29.3333 1.04762 29.3333C0.769773 29.3333 0.503307 29.4437 0.306841 29.6402C0.110374 29.8366 0 30.1031 0 30.381V42.9524C0 43.2302 0.110374 43.4967 0.306841 43.6932C0.503307 43.8896 0.769773 44 1.04762 44H13.619C13.8969 44 14.1634 43.8896 14.3598 43.6932C14.5563 43.4967 14.6667 43.2302 14.6667 42.9524C14.6667 42.6745 14.5563 42.4081 14.3598 42.2116C14.1634 42.0151 13.8969 41.9048 13.619 41.9048H3.57762L18.5507 26.9317C18.7473 26.7351 18.8577 26.4685 18.8577 26.1905C18.8577 25.9125 18.7473 25.6459 18.5507 25.4493C18.3541 25.2527 18.0875 25.1423 17.8095 25.1423C17.5315 25.1423 17.2649 25.2527 17.0683 25.4493Z" fill="black"/>
</svg>
