<svg width="44" height="42" viewBox="0 0 44 42" fill="none" xmlns="http://www.w3.org/2000/svg">
<path d="M42.4087 42L30.5935 30.0007C28.9423 31.3638 27.2401 32.4098 25.4871 33.1386C23.734 33.8673 21.7509 34.2317 19.5378 34.2317C16.5111 34.2317 13.7482 33.5045 11.2489 32.05C8.74966 30.5955 6.75684 28.6603 5.27047 26.2443H8.05292C9.41343 27.9741 11.0826 29.3571 13.0604 30.3932C15.0383 31.4308 17.1974 31.9496 19.5378 31.9496C23.5714 31.9496 27.0146 30.5012 29.8675 27.6044C32.7204 24.7077 34.1468 21.2115 34.1468 17.1158C34.1468 13.0202 32.7204 9.52402 29.8675 6.62725C27.0146 3.73049 23.5714 2.28211 19.5378 2.28211C15.699 2.28211 12.3892 3.6065 9.60821 6.25527C6.82726 8.90404 5.2862 12.1439 4.98503 15.9748H2.7375C3.03717 11.4653 4.78575 7.67551 7.98325 4.6053C11.1807 1.5351 15.0315 0 19.5356 0C24.2404 0 28.226 1.65833 31.4925 4.97501C34.7589 8.29168 36.3921 12.3386 36.3921 17.1158C36.3921 19.363 36.034 21.3842 35.3178 23.1794C34.6016 24.9747 33.5714 26.7106 32.2274 28.3872L44 40.3409L42.4087 42ZM17.596 25.5414L13.6268 12.1408L10.1881 22.1205H0V20.1031H8.77213L12.4806 9.26309H14.8585L18.7624 22.5678L21.7831 13.2568H24.161L27.5323 20.1031H29.391V22.1205H26.3164L23.1137 15.6165L19.9154 25.5437L17.596 25.5414Z" fill="black"/>
</svg>
