<svg width="36" height="40" viewBox="0 0 36 40" fill="none" xmlns="http://www.w3.org/2000/svg">
<path d="M6.72686 40C5.57486 40 4.59429 39.6009 3.78514 38.8028C2.976 38.0046 2.57143 37.0383 2.57143 35.9036V4.48954H0V1.95308H10.2857V0H25.7143V1.95308H36V4.48954H33.4286V35.9036C33.4286 37.0704 33.0326 38.0452 32.2406 38.8282C31.4486 39.6111 30.4594 40.0017 29.2731 40H6.72686ZM30.8571 4.48954H5.14286V35.9036C5.14286 36.3585 5.29114 36.7322 5.58771 37.0247C5.88429 37.3173 6.264 37.4635 6.72686 37.4635H29.2757C29.67 37.4635 30.0326 37.3012 30.3634 36.9765C30.6943 36.6519 30.8589 36.2934 30.8571 35.9011V4.48954ZM12.3634 32.3906H14.9349V9.56246H12.3634V32.3906ZM21.0651 32.3906H23.6366V9.56246H21.0651V32.3906Z" fill="black"/>
</svg>
