<svg width="35" height="55" viewBox="0 0 35 55" fill="none" xmlns="http://www.w3.org/2000/svg">
<path d="M17.2562 11.5732L17.2274 34.3495L18.4697 38.0922L18.4438 54.314L17.1943 54.3155L13.4472 54.3227L12.1963 54.3241L12.2222 38.1023L13.4775 34.3553L13.5078 11.5732H17.2562Z" stroke="black" stroke-linecap="round" stroke-linejoin="round"/>
<path d="M21.9676 1.34647C17.5919 0.884512 13.1797 0.884512 8.80394 1.34647V4.41183H5.7328L5.74145 2.2544C4.67931 1.20235 2.08664 1.211 1.03315 2.27026L1 10.5541C2.16158 11.3208 4.55248 11.315 5.7083 10.5382L5.71695 8.18338H8.80394V11.573H21.9676V5.72762C21.9676 5.72762 30.7429 5.72762 33.667 8.64887C32.4035 6.6199 30.6924 4.90698 28.6648 3.64125C26.6371 2.37552 24.3453 1.59056 21.9676 1.34647Z" stroke="black" stroke-linecap="round" stroke-linejoin="round"/>
</svg>
