<svg width="48" height="34" viewBox="0 0 48 34" fill="none" xmlns="http://www.w3.org/2000/svg">
<path d="M3.8784 34C2.7728 34 1.8504 33.626 1.1112 32.878C0.372 32.13 0.0016 31.1958 0 30.0754V3.92457C0 2.80581 0.3704 1.87243 1.1112 1.12443C1.852 0.376428 2.7744 0.00161905 3.8784 0H44.124C45.228 0 46.1504 0.374809 46.8912 1.12443C47.632 1.87405 48.0016 2.80743 48 3.92457V30.0779C48 31.195 47.6304 32.1284 46.8912 32.878C46.152 33.6276 45.2296 34.0016 44.124 34H3.8784ZM3.8784 31.5714H44.124C44.5544 31.5714 44.908 31.4314 45.1848 31.1513C45.4616 30.8712 45.6 30.5134 45.6 30.0779V3.92214C45.6 3.48662 45.4616 3.12881 45.1848 2.84871C44.908 2.56862 44.5544 2.42857 44.124 2.42857H3.876C3.4456 2.42857 3.092 2.56862 2.8152 2.84871C2.5384 3.12881 2.4 3.48743 2.4 3.92457V30.0779C2.4 30.5134 2.5384 30.8712 2.8152 31.1513C3.092 31.4314 3.4464 31.5714 3.8784 31.5714ZM4.524 23.5377H6.5088V13.8234L12.9984 23.5377H15.0456V10.4623H13.0608V20.1766L6.6912 10.4623H4.5216L4.524 23.5377ZM18.7392 23.5377H26.8608V21.5293H20.8608V18.1123H26.8608V16.1039H20.8608V12.4683H26.8608V10.4623H18.7392V23.5377ZM32.2152 23.5377H41.8152C42.3112 23.5377 42.712 23.3831 43.0176 23.0739C43.3248 22.7646 43.4784 22.359 43.4784 21.8571V10.4623H41.4936V21.3909H38.0208V12.8909H36.0384V21.3909H32.5392V10.4623H30.5544V21.8571C30.5544 22.359 30.7072 22.7646 31.0128 23.0739C31.3184 23.3831 31.7192 23.5377 32.2152 23.5377Z" fill="black"/>
</svg>
