<svg width="54" height="54" viewBox="0 0 54 54" fill="none" xmlns="http://www.w3.org/2000/svg">
<path d="M53.6311 26.3378L51.3641 24.9344C51.345 24.7141 51.3235 24.494 51.2996 24.2742L53.2478 22.457C53.3452 22.3665 53.4177 22.2525 53.4585 22.1259C53.4993 21.9994 53.507 21.8645 53.4809 21.7341C53.4552 21.6037 53.3965 21.4821 53.3105 21.3807C53.2245 21.2794 53.1139 21.2018 52.9894 21.1553L50.4989 20.2241C50.4363 20.009 50.3713 19.7947 50.3037 19.5811L51.8573 17.4235C51.9351 17.3156 51.9841 17.1897 51.9995 17.0576C52.0149 16.9255 51.9963 16.7916 51.9454 16.6687C51.8946 16.5459 51.8131 16.438 51.7088 16.3555C51.6045 16.2729 51.4809 16.2184 51.3496 16.1971L48.7234 15.77C48.6213 15.5709 48.515 15.3747 48.4078 15.1802L49.5112 12.7581C49.5669 12.6372 49.5905 12.5041 49.5798 12.3715C49.5692 12.2389 49.5247 12.1113 49.4505 12.0008C49.3769 11.89 49.2762 11.8 49.1578 11.7394C49.0395 11.6787 48.9075 11.6495 48.7747 11.6545L46.1092 11.7473C45.9716 11.5749 45.8312 11.4046 45.6882 11.2366L46.3008 8.64045C46.3313 8.51096 46.3282 8.37582 46.2918 8.24787C46.2554 8.11991 46.1869 8.00338 46.0928 7.90935C45.9988 7.81532 45.8823 7.74685 45.7545 7.71046C45.6266 7.67406 45.4915 7.67093 45.3621 7.70137L42.7665 8.31329C42.598 8.17043 42.4274 8.03007 42.2548 7.89227L42.348 5.22712C42.3531 5.09424 42.3239 4.96229 42.2634 4.84391C42.2028 4.72553 42.1128 4.6247 42.0021 4.55108C41.8916 4.47704 41.764 4.43254 41.6314 4.42183C41.4989 4.41112 41.3658 4.43456 41.2448 4.48991L38.8233 5.59393C38.6279 5.48613 38.4313 5.38065 38.2335 5.27753L37.8053 2.65099C37.7838 2.51984 37.7293 2.39633 37.6467 2.29217C37.5642 2.18801 37.4564 2.10665 37.3337 2.0558C37.2109 2.00495 37.0771 1.9863 36.9451 2.00161C36.8131 2.01691 36.6872 2.06568 36.5793 2.14327L34.4202 3.6968C34.2078 3.62916 33.9939 3.56433 33.7785 3.50232L32.8472 1.0114C32.8009 0.886616 32.7233 0.775793 32.6219 0.689526C32.5206 0.603259 32.3988 0.544431 32.2682 0.518663C32.1379 0.493085 32.0032 0.501079 31.8769 0.541891C31.7505 0.582703 31.6366 0.654993 31.5459 0.751956L29.7287 2.70161C29.5089 2.67698 29.2888 2.65546 29.0685 2.63707L27.6651 0.369533C27.5952 0.256543 27.4975 0.163289 27.3814 0.0986173C27.2654 0.0339456 27.1347 0 27.0018 0C26.8689 0 26.7382 0.0339456 26.6222 0.0986173C26.5061 0.163289 26.4084 0.256543 26.3385 0.369533L24.9351 2.63707C24.7145 2.65543 24.4942 2.67695 24.2743 2.70161L22.4566 0.751956C22.366 0.654584 22.252 0.582012 22.1255 0.541145C21.9989 0.500278 21.864 0.492476 21.7336 0.518481C21.6031 0.544486 21.4815 0.603433 21.3803 0.689713C21.2791 0.775993 21.2017 0.886736 21.1553 1.0114L20.2243 3.50232C20.0085 3.56412 19.795 3.62972 19.582 3.6968L17.4232 2.14327C17.3154 2.06537 17.1893 2.01643 17.0572 2.0011C16.925 1.98578 16.7911 2.00459 16.6683 2.05574C16.5455 2.10661 16.4378 2.18799 16.3553 2.29216C16.2728 2.39633 16.2182 2.51984 16.1968 2.65099L15.7686 5.27753C15.5704 5.38026 15.3744 5.48594 15.1789 5.59393L12.7571 4.4897C12.6362 4.43445 12.5031 4.41109 12.3707 4.42184C12.2382 4.43258 12.1106 4.47708 12.0002 4.55108C11.8894 4.62465 11.7994 4.72546 11.7387 4.84384C11.6781 4.96222 11.6488 5.0942 11.6539 5.22712L11.7467 7.89227C11.5742 8.03033 11.4037 8.17068 11.235 8.31329L8.63937 7.70158C8.50989 7.67124 8.37481 7.6744 8.24689 7.71075C8.11897 7.7471 8.00243 7.81545 7.90826 7.90935C7.81415 8.00338 7.74565 8.11991 7.70925 8.24787C7.67285 8.37582 7.66976 8.51096 7.70027 8.64045L8.31178 11.2366C8.16975 11.4048 8.02976 11.575 7.8918 11.7473L5.2264 11.6545C5.09366 11.6503 4.96202 11.6798 4.84382 11.7404C4.72561 11.8009 4.62471 11.8904 4.55055 12.0006C4.47667 12.1112 4.43224 12.2387 4.4215 12.3713C4.41076 12.5038 4.43405 12.6369 4.48917 12.7579L5.59322 15.1802C5.48585 15.3747 5.37975 15.5709 5.27681 15.77L2.65085 16.1971C2.51963 16.2185 2.39604 16.2731 2.29182 16.3557C2.1876 16.4382 2.1062 16.546 2.05534 16.6689C2.00448 16.7917 1.98585 16.9255 2.00121 17.0576C2.01658 17.1897 2.06543 17.3156 2.14313 17.4235L3.69668 19.5814C3.6289 19.7943 3.56386 20.0085 3.50156 20.2241L1.01081 21.1553C0.886423 21.2021 0.776016 21.2798 0.690039 21.3811C0.604061 21.4824 0.545359 21.604 0.519486 21.7343C0.493614 21.8646 0.501427 21.9994 0.542187 22.1259C0.582947 22.2523 0.655306 22.3663 0.752414 22.457L2.70084 24.274C2.67659 24.4934 2.65507 24.7142 2.63651 24.9344L0.369141 26.3378C0.256234 26.4078 0.16307 26.5055 0.0984722 26.6215C0.033874 26.7376 -2.01145e-05 26.8683 8.95544e-09 27.0012C8.95544e-09 27.272 0.139852 27.5228 0.369352 27.6641L2.63651 29.0675C2.65507 29.2885 2.67652 29.5087 2.70084 29.7279L0.752203 31.5455C0.654922 31.6361 0.58241 31.75 0.541553 31.8765C0.500697 32.003 0.492851 32.1378 0.518761 32.2682C0.544672 32.3986 0.603478 32.5202 0.689597 32.6214C0.775715 32.7227 0.886287 32.8002 1.01081 32.8468L3.50156 33.778C3.56358 33.9936 3.62918 34.2077 3.69668 34.4207L2.14313 36.5788C2.06528 36.6867 2.01633 36.8126 2.00093 36.9448C1.98553 37.0769 2.00419 37.2108 2.05515 37.3336C2.1061 37.4565 2.18764 37.5643 2.29202 37.6468C2.39641 37.7292 2.52015 37.7836 2.65148 37.8047L5.27702 38.2319C5.37975 38.431 5.48501 38.6272 5.59343 38.8225L4.48917 41.244C4.43385 41.365 4.41045 41.4981 4.42119 41.6306C4.43194 41.7632 4.47648 41.8908 4.55055 42.0013C4.62413 42.112 4.72492 42.202 4.84326 42.2626C4.9616 42.3232 5.09353 42.3524 5.2264 42.3474L7.89054 42.2542C8.02955 42.4273 8.1694 42.5971 8.31178 42.7659L7.70027 45.3625C7.66961 45.4917 7.67264 45.6267 7.70905 45.7544C7.74547 45.8822 7.81406 45.9985 7.90826 46.0921C8.00213 46.1864 8.11867 46.2551 8.2467 46.2914C8.37473 46.3277 8.50995 46.3305 8.63937 46.2995L11.235 45.6882C11.4037 45.8316 11.5746 45.9708 11.7469 46.1079L11.6541 48.7739C11.6493 48.9068 11.6786 49.0386 11.7391 49.1569C11.7997 49.2753 11.8895 49.3762 12 49.45C12.1106 49.5238 12.2382 49.5681 12.3707 49.5787C12.5032 49.5893 12.6362 49.5658 12.7571 49.5105L15.1789 48.4071C15.3739 48.5154 15.5705 48.6208 15.7686 48.7233L16.1968 51.3484C16.218 51.4797 16.2724 51.6034 16.3549 51.7077C16.4374 51.8121 16.5453 51.8935 16.6683 51.9442C16.7911 51.9953 16.9249 52.014 17.0571 51.9988C17.1892 51.9835 17.3152 51.9348 17.4232 51.8571L19.5809 50.3026C19.794 50.3701 20.0081 50.4361 20.2236 50.4981L21.1549 52.9879C21.2014 53.1125 21.279 53.2231 21.3803 53.3092C21.4816 53.3952 21.6033 53.4539 21.7337 53.4796C21.8641 53.5059 21.9989 53.4982 22.1254 53.4573C22.2519 53.4165 22.3658 53.3438 22.4562 53.2463L24.2738 51.2977C24.4932 51.323 24.7139 51.3441 24.9347 51.3638L26.3381 53.6309C26.4081 53.7437 26.5057 53.8368 26.6217 53.9014C26.7377 53.966 26.8683 53.9999 27.0011 54C27.1339 54 27.2646 53.9661 27.3807 53.9015C27.4968 53.8369 27.5944 53.7438 27.6645 53.6309L29.0678 51.3638C29.2887 51.3441 29.5091 51.323 29.7283 51.2977L31.5455 53.2463C31.6358 53.3438 31.7497 53.4164 31.8762 53.4573C32.0026 53.4981 32.1375 53.5058 32.2677 53.4796C32.3982 53.4539 32.5199 53.3952 32.6212 53.3092C32.7225 53.2231 32.8001 53.1125 32.8466 52.9879L33.7778 50.4981C33.9934 50.4361 34.2077 50.3701 34.4208 50.3026L36.5789 51.8571C36.6868 51.9347 36.8128 51.9835 36.9449 51.9987C37.077 52.014 37.2108 51.9952 37.3336 51.9443C37.4564 51.8933 37.5642 51.8118 37.6466 51.7075C37.7291 51.6032 37.7836 51.4796 37.8049 51.3484L38.2331 48.7233C38.4311 48.6206 38.6271 48.5138 38.8226 48.4069L41.2444 49.5105C41.3653 49.566 41.4983 49.5896 41.6309 49.5791C41.7635 49.5686 41.8912 49.5243 42.0018 49.4504C42.1124 49.3766 42.2023 49.2756 42.2628 49.1572C42.3233 49.0388 42.3525 48.9068 42.3476 48.7739L42.2548 46.1081C42.4274 45.9709 42.5978 45.8308 42.7659 45.6882L45.3617 46.2995C45.6254 46.3615 45.9017 46.2847 46.0922 46.0921C46.1864 45.9985 46.255 45.8822 46.2914 45.7544C46.3278 45.6267 46.3308 45.4917 46.3001 45.3625L45.6889 42.7659C45.8312 42.5971 45.9715 42.4273 46.1086 42.2542L48.774 42.3474C48.9069 42.3524 49.0388 42.3233 49.1571 42.2627C49.2755 42.2021 49.3763 42.1122 49.4499 42.0015C49.524 41.8909 49.5685 41.7632 49.5791 41.6306C49.5898 41.4979 49.5663 41.3648 49.5108 41.2438L48.4072 38.8227C48.515 38.6272 48.6209 38.431 48.723 38.2321L51.3491 37.8047C51.4805 37.7837 51.6042 37.7293 51.7084 37.6467C51.8126 37.5641 51.8939 37.4561 51.9444 37.3331C51.9953 37.2103 52.0139 37.0766 51.9986 36.9446C51.9832 36.8126 51.9345 36.6867 51.8569 36.5788L50.3033 34.4209C50.3707 34.2078 50.4357 33.9935 50.4984 33.778L52.9888 32.8468C53.1135 32.8005 53.2242 32.7229 53.3103 32.6215C53.3964 32.5201 53.455 32.3983 53.4805 32.2677C53.5067 32.1375 53.499 32.0026 53.4581 31.8762C53.4173 31.7497 53.3446 31.6358 53.2472 31.5455L51.2992 29.7279C51.3228 29.5085 51.3445 29.2879 51.3635 29.0677L53.6306 27.6641C53.7437 27.5943 53.8369 27.4967 53.9016 27.3807C53.9663 27.2647 54.0001 27.134 54 27.0012C54 26.7309 53.8608 26.4797 53.6311 26.3378ZM38.4579 45.1438C37.5922 44.9571 37.0417 44.1038 37.2275 43.2354C37.4127 42.3681 38.2653 41.8161 39.1308 42.0027C39.9965 42.1882 40.5479 43.0429 40.3623 43.9096C40.1766 44.7765 39.3232 45.3292 38.4579 45.1438ZM37.6876 39.9339C37.4997 39.8937 37.3058 39.8908 37.1168 39.9256C36.9279 39.9603 36.7477 40.032 36.5864 40.1364C36.4252 40.2409 36.2861 40.3761 36.1772 40.5343C36.0683 40.6926 35.9916 40.8707 35.9516 41.0586L35.1466 44.8147C32.6628 45.9419 29.9048 46.5682 27 46.5682C24.0287 46.5682 21.2106 45.9109 18.6827 44.7356L17.8782 40.9797C17.709 40.1893 16.932 39.6858 16.1426 39.8554L12.8267 40.5675C12.2103 39.9334 11.6375 39.2583 11.1122 38.5468H27.2468C27.4293 38.5468 27.551 38.5137 27.551 38.3475V32.6402C27.551 32.4742 27.4293 32.4411 27.2466 32.4411H22.5281V28.8236H27.6318C28.0975 28.8236 30.1227 28.9565 30.7701 31.5451C30.973 32.3411 31.4181 34.9306 31.7227 35.7595C32.026 36.6893 33.261 38.5466 34.5773 38.5466H42.6172C42.7085 38.5466 42.806 38.5363 42.9087 38.5177C42.3508 39.2752 41.7397 39.9921 41.0801 40.6629L37.6876 39.9339ZM15.3725 45.0653C14.5066 45.2522 13.6542 44.7002 13.4679 43.8328C13.2827 42.964 13.8333 42.1112 14.699 41.9245C15.1151 41.8356 15.5496 41.9157 15.9067 42.1471C16.2638 42.3785 16.5144 42.7423 16.6033 43.1584C16.7885 44.0254 16.2378 44.8797 15.3725 45.0653ZM9.25172 20.2468C9.61095 21.0573 9.24539 22.0071 8.43602 22.3657C7.62666 22.7253 6.67934 22.3593 6.32032 21.5483C6.14774 21.1591 6.13671 20.7174 6.28966 20.3201C6.44261 19.9228 6.74702 19.6025 7.13602 19.4295C7.32858 19.3441 7.53607 19.2976 7.74664 19.2925C7.95721 19.2873 8.16672 19.3238 8.3632 19.3997C8.55968 19.4755 8.73929 19.5894 8.89174 19.7347C9.0442 19.8801 9.16652 20.0542 9.25172 20.2468ZM7.37058 24.7058L10.8249 23.1708C11.1796 23.0132 11.4571 22.7211 11.5965 22.3588C11.7359 21.9966 11.7257 21.5938 11.5682 21.2391L10.857 19.6305H13.6548V32.2418H8.00993C7.50955 30.4803 7.25639 28.6579 7.25773 26.8267C7.25773 26.11 7.29633 25.4019 7.37058 24.7058ZM22.529 23.4807V19.7638H29.1916C29.5359 19.7638 31.6216 20.1616 31.6216 21.7213C31.6216 23.0162 30.0219 23.4805 28.7063 23.4805L22.529 23.4807ZM46.7429 26.8265C46.7429 27.3195 46.7248 27.808 46.6887 28.2921H44.6631C44.4604 28.2921 44.3787 28.4254 44.3787 28.6239V29.5541C44.3787 31.7436 43.1441 32.2199 42.0622 32.3411C41.032 32.4572 39.8895 31.9098 39.7489 31.2793C39.1409 27.8609 38.1282 27.1309 36.5289 25.8693C38.5138 24.609 40.5789 22.7496 40.5789 20.2606C40.5789 17.5733 38.7366 15.8805 37.4806 15.0505C35.7189 13.8891 33.7681 13.6562 33.2419 13.6562H12.2932C15.1339 10.4859 18.984 8.24009 23.3383 7.42294L25.8076 10.0132C25.94 10.1522 26.0986 10.2638 26.2743 10.3414C26.4499 10.4191 26.6392 10.4614 26.8312 10.4658C27.0232 10.4702 27.2142 10.4367 27.3932 10.3673C27.5722 10.2978 27.7358 10.1937 27.8745 10.0609L30.6374 7.4183C36.4266 8.49617 41.3281 12.0998 44.1528 17.0438L42.2613 21.3159C41.9348 22.0552 42.2681 22.9198 43.0053 23.2474L46.6469 24.8648C46.7098 25.5113 46.7429 26.1644 46.7429 26.8265ZM25.8086 5.21974C26.4484 4.60698 27.4632 4.63123 28.0758 5.27184C28.6871 5.91434 28.6639 6.9302 28.0226 7.54254C27.3829 8.15551 26.368 8.13167 25.7555 7.4898C25.4619 7.18152 25.3026 6.76936 25.3126 6.34378C25.3226 5.9182 25.5009 5.51395 25.8086 5.21974ZM44.5785 20.3247C44.6636 20.132 44.7858 19.9581 44.9383 19.8127C45.0907 19.6674 45.2703 19.5535 45.4667 19.4777C45.6632 19.4018 45.8727 19.3654 46.0833 19.3706C46.2938 19.3758 46.5013 19.4225 46.6938 19.5079C47.5033 19.867 47.8687 20.8164 47.5095 21.6268C47.4244 21.8195 47.3021 21.9936 47.1497 22.139C46.9973 22.2844 46.8177 22.3984 46.6211 22.4743C46.4246 22.5502 46.2151 22.5866 46.0044 22.5815C45.7938 22.5763 45.5863 22.5296 45.3937 22.4441C44.5852 22.0849 44.2199 21.1364 44.5785 20.3247Z" fill="black"/>
</svg>
