<svg width="47" height="47" viewBox="0 0 47 47" fill="none" xmlns="http://www.w3.org/2000/svg">
<path d="M23.3114 1.76659L45.2744 24.2138C45.5625 24.5083 45.7748 24.8681 45.893 25.2624C46.0112 25.6568 46.0318 26.0739 45.9531 26.4779C45.8744 26.882 45.6987 27.2609 45.4411 27.5823C45.1834 27.9036 44.8516 28.1578 44.4739 28.323L4.57111 45.7864C4.09963 45.9925 3.57671 46.0512 3.07116 45.9549C2.5656 45.8586 2.10109 45.6117 1.73874 45.2468C1.37639 44.8819 1.13319 44.416 1.04112 43.9104C0.949047 43.4048 1.01243 42.8833 1.22293 42.4144L19.1628 2.50254C19.3329 2.1242 19.593 1.79311 19.9206 1.53807C20.2482 1.28304 20.6332 1.11179 21.0422 1.03924C21.4511 0.966693 21.8717 0.995034 22.2672 1.1218C22.6627 1.24857 23.0212 1.46992 23.3114 1.76659Z" stroke="black" stroke-linecap="round" stroke-linejoin="round"/>
</svg>
