<svg width="45" height="37" viewBox="0 0 45 37" fill="none" xmlns="http://www.w3.org/2000/svg">
<path d="M21.3158 37C19.8884 37 18.6434 36.5412 17.5808 35.6237C16.5182 34.7094 15.8503 33.5799 15.5771 32.2354H18.0379C18.2795 32.9418 18.6955 33.5149 19.2861 33.9546C19.8766 34.3959 20.5532 34.6165 21.3158 34.6165C22.29 34.6165 23.1261 34.2665 23.8239 33.5664C24.5218 32.8664 24.87 32.0259 24.8684 31.0449C24.8668 30.0638 24.5187 29.2241 23.8239 28.5256C23.1261 27.824 22.29 27.4732 21.3158 27.4732H0V25.0921H21.3158C22.9563 25.0921 24.3537 25.6723 25.5079 26.8327C26.6621 27.9931 27.2384 29.3979 27.2368 31.0472C27.2353 32.6965 26.6589 34.1006 25.5079 35.2594C24.3568 36.4182 22.9595 36.9976 21.3158 36.9976M0 14.2866V11.9055H30.7895C32.1189 11.9055 33.2408 11.446 34.155 10.5269C35.0692 9.60776 35.5263 8.47991 35.5263 7.14332C35.5263 5.80672 35.0692 4.67887 34.155 3.75977C33.2408 2.84066 32.1189 2.38031 30.7895 2.37872C29.6416 2.37872 28.6563 2.71684 27.8337 3.39308C27.0111 4.06772 26.4782 4.92095 26.235 5.95276H23.7742C24.0474 4.22249 24.8392 2.79701 26.1497 1.6763C27.4603 0.558766 29.0068 0 30.7895 0C32.7853 0 34.4684 0.688933 35.8389 2.0668C37.2095 3.44467 37.8947 5.13684 37.8947 7.14332C37.8947 9.14979 37.2095 10.842 35.8389 12.2198C34.4684 13.5977 32.7853 14.2866 30.7895 14.2866H0ZM39.0789 32.6902V30.2186C40.1053 29.9742 40.9539 29.4384 41.625 28.6114C42.2961 27.7843 42.6316 26.7946 42.6316 25.6421C42.6316 24.3055 42.1745 23.1777 41.2603 22.2586C40.3461 21.3395 39.2242 20.8799 37.8947 20.8799H0V18.4988H37.8947C39.8905 18.4988 41.5737 19.1877 42.9442 20.5656C44.3147 21.9435 45 23.6356 45 25.6421C45 27.4343 44.4434 28.9892 43.3303 30.3067C42.2171 31.6243 40.8 32.4187 39.0789 32.6902Z" fill="black"/>
</svg>
