<svg width="39" height="42" viewBox="0 0 39 42" fill="none" xmlns="http://www.w3.org/2000/svg">
<path d="M14 6.768C13.08 6.768 12.286 6.43467 11.618 5.768C10.95 5.09867 10.616 4.304 10.616 3.384C10.616 2.464 10.9493 1.67 11.616 1.002C12.2827 0.334 13.0773 0 14 0C14.9227 0 15.7167 0.333334 16.382 1C17.05 1.66933 17.384 2.464 17.384 3.384C17.384 4.304 17.0507 5.098 16.384 5.766C15.7147 6.434 14.92 6.768 14 6.768ZM2.308 41.384L7.884 12.492L2 14.952V21.384H0V13.6L9.232 9.8C10.132 9.43333 10.9653 9.34 11.732 9.52C12.4987 9.7 13.106 10.16 13.554 10.9L15.494 14.06C16.3673 15.476 17.5493 16.666 19.04 17.63C20.532 18.594 22.1853 19.1533 24 19.308V21.308C21.6453 21.1533 19.578 20.436 17.798 19.156C16.0167 17.8773 14.592 16.3613 13.524 14.608L11.746 23.646L16 27.822V41.384H14V30.038L8.16 24.46L4.356 41.384H2.308ZM29.116 41.768V13.768H21.616V1H38.384V13.768H30.884V41.768H29.116ZM31.05 11.448L35.116 7.384L31.05 3.318L29.784 4.584L31.7 6.5H24.616V8.268H31.7L29.784 10.184L31.05 11.448Z" fill="black"/>
</svg>
