<svg width="42" height="22" viewBox="0 0 42 22" viewPort="0 0 42 42" fill="none" xmlns="http://www.w3.org/2000/svg">
<path d="M17.9641 3.82362C16.3084 2.21693 14.1481 1.23216 11.8493 1.03621C9.55057 0.840255 7.25475 1.44518 5.35102 2.74846C3.44728 4.05174 2.05275 5.97319 1.40378 8.18713C0.754809 10.4011 0.891331 12.7713 1.7902 14.8961C2.68908 17.0209 4.295 18.7695 6.33578 19.8456C8.37657 20.9217 10.7267 21.259 12.9877 20.8004C15.2488 20.3419 17.2818 19.1156 18.742 17.3294C20.2023 15.5432 21 13.3071 21 11M21 11C21 8.6929 21.7977 6.45677 23.258 4.67061C24.7182 2.88445 26.7512 1.65815 29.0123 1.19956C31.2733 0.74097 33.6234 1.0783 35.6642 2.15439C37.705 3.23047 39.3109 4.9791 40.2098 7.10389C41.1087 9.22868 41.2452 11.5989 40.5962 13.8129C39.9473 16.0268 38.5527 17.9483 36.649 19.2515C34.7453 20.5548 32.4494 21.1597 30.1507 20.9638C27.8519 20.7678 25.6916 19.7831 24.0359 18.1764M21 11H11" stroke="black" stroke-linecap="round" stroke-linejoin="round"/>
</svg>
