<svg width="59" height="35" viewBox="0 0 59 35" fill="none" xmlns="http://www.w3.org/2000/svg">
<path d="M57.5 17.1426C57.5 17.1426 44.8696 33.2852 29.25 33.2852C13.6324 33.2852 1 17.1426 1 17.1426C1 17.1426 13.6305 1 29.25 1C44.8696 1 57.5 17.1426 57.5 17.1426ZM29.25 9.07033C27.1091 9.07033 25.0559 9.92079 23.5421 11.4346C22.0282 12.9485 21.1777 15.0017 21.1777 17.1426C21.1777 19.2835 22.0282 21.3367 23.5421 22.8505C25.0559 24.3644 27.1091 25.2148 29.25 25.2148C31.3909 25.2148 33.4441 24.3644 34.958 22.8505C36.4718 21.3367 37.3223 19.2835 37.3223 17.1426C37.3223 15.0017 36.4718 12.9485 34.958 11.4346C33.4441 9.92079 31.3909 9.07033 29.25 9.07033Z" stroke="#344054" stroke-width="2" stroke-linecap="round" stroke-linejoin="round"/>
</svg>
