<svg width="48" height="36" viewBox="0 0 48 36" fill="none" xmlns="http://www.w3.org/2000/svg">
<path d="M44.3793 1H3.34483C2.05517 1 1 2.05517 1 3.34483V32.6552C1 33.9448 2.05517 35 3.34483 35H44.3793C45.669 35 46.7241 33.9448 46.7241 32.6552V3.34483C46.7241 2.05517 45.669 1 44.3793 1Z" stroke="black" stroke-linecap="round" stroke-linejoin="round"/>
<path d="M31.2525 18.0006C31.2525 18.2546 31.1856 18.5042 31.0585 18.7241C30.9313 18.944 30.7485 19.1265 30.5283 19.2533L19.8066 25.4261C19.5868 25.5526 19.3376 25.619 19.084 25.6187C18.8304 25.6184 18.5813 25.5514 18.3618 25.4245C18.1422 25.2975 17.96 25.115 17.8333 24.8952C17.7066 24.6755 17.6399 24.4264 17.64 24.1728V11.8272C17.6399 11.5736 17.7066 11.3245 17.8333 11.1048C17.96 10.885 18.1422 10.7025 18.3618 10.5755C18.5813 10.4486 18.8304 10.3816 19.084 10.3813C19.3376 10.381 19.5868 10.4474 19.8066 10.5739L30.5283 16.7479C30.7485 16.8746 30.9313 17.0572 31.0585 17.2771C31.1856 17.497 31.2525 17.7466 31.2525 18.0006ZM31.2525 18.0006L42.3275 18M23.862 1V12.7312M23.862 23.0906V35M5.39648 27.3688H19.4655M5.39648 18H17.6388M5.39648 8.63124H19.4655M28.2586 27.3688H42.3275M28.2586 8.63124H42.3275" stroke="black" stroke-linecap="round" stroke-linejoin="round"/>
</svg>
