<svg width="30" height="30" viewBox="0 0 30 30" fill="none" xmlns="http://www.w3.org/2000/svg">
<path d="M8 1H3.33333C2.04467 1 1 1.89543 1 3V27C1 28.1046 2.04467 29 3.33333 29H8C9.28866 29 10.3333 28.1046 10.3333 27V3C10.3333 1.89543 9.28866 1 8 1Z" stroke="black" stroke-linecap="round"/>
<path d="M26.6665 1H21.9998C20.7112 1 19.6665 1.89543 19.6665 3V27C19.6665 28.1046 20.7112 29 21.9998 29H26.6665C27.9552 29 28.9998 28.1046 28.9998 27V3C28.9998 1.89543 27.9552 1 26.6665 1Z" stroke="black" stroke-linecap="round"/>
</svg>
