<svg width="22" height="42" viewBox="0 0 22 42" fill="none" xmlns="http://www.w3.org/2000/svg">
<path d="M21.9945 40.9999C21.9945 41.2651 21.8891 41.5195 21.7016 41.7071C21.5142 41.8946 21.2599 42 20.9947 42H0.99975C0.814084 42 0.632086 41.9483 0.47415 41.8506C0.316214 41.753 0.18858 41.6133 0.105548 41.4472C0.0225164 41.281 -0.0126338 41.0951 0.00404002 40.9101C0.0207138 40.7251 0.0885526 40.5484 0.199952 40.3998L18.1804 16.4173C18.9061 15.4746 19.4377 14.3974 19.7446 13.2479C20.0514 12.0984 20.1274 10.8994 19.9682 9.72035C19.8089 8.54128 19.4176 7.4055 18.8168 6.37868C18.216 5.35186 17.4176 4.45439 16.4679 3.73817C15.5182 3.02195 14.4359 2.50119 13.2838 2.20601C12.1316 1.91083 10.9324 1.84709 9.7554 2.01847C8.57845 2.18986 7.44714 2.59296 6.4269 3.20448C5.40666 3.81599 4.51774 4.62378 3.81154 5.58113C3.38873 6.14413 3.0323 6.75406 2.74931 7.39883C2.64292 7.64186 2.44438 7.83265 2.19736 7.92924C1.95034 8.02584 1.67508 8.02031 1.43214 7.91388C1.1892 7.80745 0.998469 7.60884 0.901912 7.36173C0.805355 7.11463 0.810878 6.83927 0.91727 6.59624C1.26318 5.80914 1.69933 5.06491 2.21694 4.3785C3.08673 3.22472 4.17518 2.25361 5.42013 1.52062C6.66509 0.787638 8.04217 0.30713 9.47276 0.106534C10.9034 -0.0940615 12.3594 -0.0108165 13.7579 0.351516C15.1563 0.713849 16.4697 1.34817 17.6231 2.21827C18.7764 3.08837 19.7472 4.17721 20.4799 5.42261C21.2126 6.66801 21.693 8.04559 21.8935 9.4767C22.094 10.9078 22.0108 12.3644 21.6486 13.7633C21.2864 15.1623 20.6523 16.4761 19.7825 17.6299L2.99925 39.9998H20.9947C21.2599 39.9998 21.5142 40.1052 21.7016 40.2927C21.8891 40.4803 21.9945 40.7346 21.9945 40.9999Z" fill="black"/>
</svg>
