<svg width="28" height="38" viewBox="0 0 28 38" fill="none" xmlns="http://www.w3.org/2000/svg">
<path d="M24.3486 5.96172C21.8664 2.06172 18.2223 0 13.8125 0C9.40266 0 5.75859 2.06172 3.27641 5.96172C1.16391 9.28078 0 13.8003 0 18.6875C0 23.5747 1.16391 28.0942 3.27641 31.4133C5.75859 35.3133 9.40266 37.375 13.8125 37.375C18.2223 37.375 21.8664 35.3133 24.3486 31.4133C26.4611 28.0942 27.625 23.5747 27.625 18.6875C27.625 13.8003 26.4611 9.28078 24.3486 5.96172ZM13.8125 35.75C5.39297 35.75 1.625 27.1802 1.625 18.6875C1.625 10.1948 5.39297 1.625 13.8125 1.625C22.232 1.625 26 10.1948 26 18.6875C26 27.1802 22.232 35.75 13.8125 35.75Z" fill="black"/>
</svg>
