<svg width="30" height="40" viewBox="0 0 30 40" fill="none" xmlns="http://www.w3.org/2000/svg">
<path d="M29.0625 28.5712H24.3749V0.951657C24.3747 0.754481 24.3144 0.562214 24.2021 0.401388C24.0898 0.240563 23.9311 0.119108 23.748 0.0537849C23.5648 -0.0115383 23.3663 -0.0175098 23.1796 0.0366956C22.993 0.090901 22.8276 0.202611 22.7061 0.356408L0.205669 28.9284C0.0953078 29.0684 0.0261176 29.2372 0.00606529 29.4155C-0.013987 29.5937 0.0159132 29.774 0.0923241 29.9357C0.168735 30.0975 0.28855 30.234 0.437974 30.3296C0.587397 30.4251 0.760355 30.4759 0.936933 30.476H22.4999V39.0476C22.4999 39.3002 22.5986 39.5424 22.7744 39.7211C22.9503 39.8997 23.1887 40 23.4374 40C23.686 40 23.9245 39.8997 24.1003 39.7211C24.2761 39.5424 24.3749 39.3002 24.3749 39.0476V30.476H29.0625C29.3111 30.476 29.5496 30.3757 29.7254 30.1971C29.9012 30.0185 30 29.7762 30 29.5236C30 29.271 29.9012 29.0288 29.7254 28.8502C29.5496 28.6716 29.3111 28.5712 29.0625 28.5712ZM22.4999 28.5712H2.88697L22.4999 3.66599V28.5712Z" fill="black"/>
</svg>
