<svg width="30" height="48" viewBox="0 0 30 48" fill="none" xmlns="http://www.w3.org/2000/svg">
<path d="M15.0068 5.48648e-07C12.7228 -0.000614147 10.4688 0.5153 8.41663 1.50841C6.36446 2.50152 4.56831 3.94561 3.16511 5.73059C1.76191 7.51557 0.788713 9.59432 0.319706 11.8083C-0.149302 14.0224 -0.101735 16.3132 0.458777 18.5063C1.01929 20.6994 2.07795 22.7367 3.55405 24.4631C5.03015 26.1894 6.88473 27.5591 8.97639 28.4678C11.068 29.3765 13.3416 29.8002 15.6236 29.7066C17.9057 29.613 20.1361 29.0045 22.1447 27.9276L11.6918 46.2936C11.5418 46.5588 11.5044 46.8722 11.5877 47.1649C11.671 47.4575 11.8683 47.7053 12.1361 47.8538C12.4039 48.0024 12.7204 48.0395 13.0158 47.957C13.3112 47.8744 13.5614 47.679 13.7114 47.4138L27.99 22.2895C29.3064 20.0312 29.9996 17.4697 30 14.862C30.0004 12.2544 29.308 9.69263 27.9924 7.43396C26.6768 5.17528 24.7842 3.29928 22.5049 1.99439C20.2255 0.689498 17.6396 0.00167117 15.0068 5.48648e-07ZM15.0068 27.4332C12.4961 27.4332 10.0417 26.6958 7.95407 25.3142C5.86645 23.9326 4.23935 21.9689 3.27852 19.6714C2.31769 17.3738 2.06629 14.8457 2.55612 12.4067C3.04595 9.96766 4.25499 7.72726 6.03037 5.96881C7.80575 4.21037 10.0677 3.01285 12.5302 2.5277C14.9928 2.04255 17.5452 2.29155 19.8649 3.24321C22.1845 4.19487 24.1671 5.80646 25.5621 7.87417C26.957 9.94188 27.7015 12.3729 27.7015 14.8597C27.6977 18.1932 26.359 21.3892 23.9791 23.7463C21.5992 26.1035 18.3725 27.4295 15.0068 27.4332Z" fill="black"/>
</svg>
