<svg width="24" height="46" viewBox="0 0 24 46" fill="none" xmlns="http://www.w3.org/2000/svg">
<path d="M23.9539 1.41012L10.8629 45.2196C10.7954 45.4451 10.6574 45.6428 10.4693 45.7834C10.2811 45.924 10.0528 45.9999 9.81831 46C9.712 46.0007 9.60622 45.985 9.50467 45.9534C9.36691 45.9121 9.23865 45.8438 9.12726 45.7525C9.01588 45.6612 8.92357 45.5487 8.85565 45.4215C8.78772 45.2943 8.74551 45.1548 8.73146 45.0111C8.7174 44.8675 8.73178 44.7224 8.77375 44.5844L21.4421 2.19047H1.09092C0.801592 2.19047 0.524111 2.07508 0.319523 1.86969C0.114935 1.66429 0 1.38571 0 1.09524C0 0.804762 0.114935 0.526185 0.319523 0.320788C0.524111 0.115391 0.801592 0 1.09092 0H22.9094C23.0794 4.79107e-05 23.2471 0.0400081 23.3991 0.11669C23.551 0.193373 23.683 0.304654 23.7845 0.44165C23.8859 0.578646 23.9541 0.737564 23.9835 0.905716C24.013 1.07387 24.0028 1.2466 23.9539 1.41012Z" fill="black"/>
</svg>
