<svg width="22" height="42" viewBox="0 0 22 42" fill="none" xmlns="http://www.w3.org/2000/svg">
<path d="M22 28.9992C22.0002 31.5089 21.2741 33.965 19.9093 36.071C18.5444 38.1769 16.5993 39.8428 14.3086 40.8673C12.018 41.8919 9.47977 42.2314 7.00043 41.8449C4.52109 41.4583 2.20662 40.3622 0.336458 38.689C0.237985 38.6013 0.157738 38.4951 0.100299 38.3764C0.0428606 38.2578 0.00935541 38.1289 0.00169598 37.9973C-0.00596346 37.8657 0.0123725 37.7339 0.0556584 37.6093C0.0989443 37.4848 0.166332 37.37 0.253973 37.2715C0.341614 37.173 0.447794 37.0928 0.566448 37.0353C0.685103 36.9779 0.813907 36.9443 0.94551 36.9367C1.07711 36.929 1.20894 36.9474 1.33345 36.9907C1.45797 37.034 1.57274 37.1013 1.67121 37.189C3.24491 38.5965 5.19038 39.5212 7.27532 39.8527C9.36026 40.1843 11.4966 39.9087 13.4291 39.0588C15.3617 38.2089 17.0088 36.8207 18.1739 35.0599C19.3389 33.2991 19.9727 31.2401 19.9994 29.1288C20.0261 27.0175 19.4447 24.9431 18.3246 23.1534C17.2045 21.3636 15.5931 19.9341 13.6826 19.0356C11.7722 18.137 9.64359 17.8074 7.55093 18.086C5.45827 18.3646 3.49001 19.2398 1.88118 20.6069C1.72353 20.7398 1.52868 20.8207 1.3233 20.8385C1.11793 20.8563 0.912067 20.8102 0.733914 20.7064C0.55576 20.6027 0.414022 20.4464 0.328106 20.259C0.24219 20.0716 0.216297 19.8622 0.253973 19.6595L4.02578 0.804979C4.07078 0.57861 4.19269 0.374779 4.37082 0.228058C4.54895 0.0813381 4.77234 0.000762634 5.00311 0H21.0002C21.2654 0 21.5197 0.105354 21.7072 0.292886C21.8947 0.480417 22 0.734764 22 0.999973C22 1.26518 21.8947 1.51953 21.7072 1.70706C21.5197 1.89459 21.2654 1.99995 21.0002 1.99995H5.82296L2.69603 17.632C4.67466 16.5339 6.90565 15.9715 9.16829 16.0004C11.4309 16.0293 13.6468 16.6485 15.5968 17.7967C17.5468 18.945 19.1632 20.5825 20.2863 22.5473C21.4093 24.5121 22 26.736 22 28.9992Z" fill="black"/>
</svg>
