<svg width="26" height="46" viewBox="0 0 26 46" fill="none" xmlns="http://www.w3.org/2000/svg">
<path d="M17.77 20.9096C20.0157 19.829 21.8279 18.0179 22.9097 15.773C23.9915 13.528 24.2788 10.9823 23.7245 8.55277C23.1703 6.12323 21.8074 3.95389 19.859 2.40005C17.9106 0.846217 15.4922 0 13 0C10.5078 0 8.08942 0.846217 6.14103 2.40005C4.19264 3.95389 2.82971 6.12323 2.27548 8.55277C1.72124 10.9823 2.00855 13.528 3.09034 15.773C4.17214 18.0179 5.9843 19.829 8.23001 20.9096C5.41452 22.02 3.07474 24.0779 1.61411 26.7284C0.153467 29.3789 -0.336488 32.4559 0.228717 35.4289C0.793923 38.4019 2.37886 41.0846 4.71027 43.0143C7.04167 44.9441 9.97341 46 13 46C16.0266 46 18.9583 44.9441 21.2897 43.0143C23.6211 41.0846 25.2061 38.4019 25.7713 35.4289C26.3365 32.4559 25.8465 29.3789 24.3859 26.7284C22.9253 24.0779 20.5855 22.02 17.77 20.9096ZM4.00002 11.0007C4.00002 9.22089 4.52786 7.48103 5.51679 6.00115C6.50572 4.52128 7.91132 3.36786 9.55585 2.68675C11.2004 2.00563 13.01 1.82743 14.7558 2.17465C16.5016 2.52188 18.1053 3.37895 19.3639 4.63748C20.6226 5.89601 21.4798 7.49947 21.8271 9.2451C22.1743 10.9907 21.9961 12.8001 21.3149 14.4445C20.6337 16.0888 19.4802 17.4943 18.0001 18.4831C16.5201 19.4719 14.78 19.9997 13 19.9997C10.6131 19.9997 8.32388 19.0516 6.63605 17.364C4.94823 15.6763 4.00002 13.3874 4.00002 11.0007ZM13 43.997C10.8244 43.997 8.69767 43.3519 6.88874 42.1433C5.0798 40.9348 3.66991 39.217 2.83734 37.2073C2.00478 35.1975 1.78695 32.986 2.21138 30.8525C2.63582 28.7189 3.68346 26.7591 5.22184 25.2209C6.76021 23.6827 8.72022 22.6352 10.854 22.2108C12.9878 21.7864 15.1995 22.0042 17.2095 22.8367C19.2195 23.6692 20.9375 25.0789 22.1461 26.8876C23.3548 28.6964 24 30.8229 24 32.9982C23.9967 35.9142 22.8367 38.7099 20.7745 40.7719C18.7123 42.8338 15.9164 43.9937 13 43.997Z" fill="black"/>
</svg>
