<svg width="12" height="40" viewBox="0 0 12 40" fill="none" xmlns="http://www.w3.org/2000/svg">
<path d="M12 0.952669V39.0476C12 39.3002 11.8946 39.5424 11.7071 39.7211C11.5196 39.8997 11.2652 40 11 40C10.7348 40 10.4805 39.8997 10.2929 39.7211C10.1054 39.5424 10 39.3002 10 39.0476V2.63361L1.51523 7.48357C1.40263 7.54798 1.27781 7.59064 1.14789 7.60911C1.01798 7.62757 0.885514 7.62149 0.758069 7.5912C0.500681 7.53002 0.279349 7.37398 0.142766 7.15738C0.00618247 6.94079 -0.034466 6.6814 0.0297637 6.43626C0.0939935 6.19113 0.257841 5.98033 0.485259 5.85025L10.485 0.136009C10.6368 0.0491759 10.81 0.00226857 10.987 8.02384e-05C11.1641 -0.00210809 11.3385 0.0405007 11.4926 0.123553C11.6467 0.206605 11.7748 0.327123 11.864 0.472793C11.9531 0.618463 12.0001 0.784062 12 0.952669Z" fill="black"/>
</svg>
