<svg width="24" height="40" viewBox="0 0 24 40" fill="none" xmlns="http://www.w3.org/2000/svg">
<path d="M11.9857 15.2339C9.99152 15.231 8.02854 15.7444 6.27643 16.727L14.6372 1.42201C14.7572 1.20096 14.7871 0.93979 14.7205 0.695952C14.6538 0.452113 14.496 0.245582 14.2818 0.121793C14.0676 -0.00199563 13.8145 -0.0329026 13.5782 0.0358724C13.3419 0.104647 13.1418 0.267471 13.0218 0.488522L1.60105 21.4373C0.282768 23.7996 -0.243299 26.5448 0.104443 29.247C0.452184 31.9493 1.6543 34.4576 3.52434 36.383C5.39439 38.3084 7.82784 39.5432 10.4473 39.8959C13.0667 40.2486 15.7258 39.6995 18.012 38.3338C20.2982 36.9681 22.0838 34.8621 23.0919 32.3424C24.1 29.8227 24.2742 27.0302 23.5875 24.3979C22.9007 21.7656 21.3915 19.4408 19.2938 17.7839C17.1962 16.127 14.6273 15.2306 11.9857 15.2339ZM11.9857 38.0949C9.97742 38.0949 8.01428 37.4804 6.34449 36.329C4.6747 35.1777 3.37326 33.5413 2.60474 31.6267C1.83622 29.7121 1.63514 27.6053 2.02693 25.5728C2.41871 23.5403 3.38577 21.6733 4.80581 20.2079C6.22585 18.7425 8.03509 17.7446 10.0047 17.3403C11.9744 16.936 14.016 17.1435 15.8714 17.9366C17.7267 18.7296 19.3125 20.0726 20.4283 21.7957C21.544 23.5188 22.1395 25.5446 22.1395 27.6169C22.1364 30.3949 21.0657 33.0582 19.1621 35.0225C17.2586 36.9868 14.6777 38.0918 11.9857 38.0949Z" fill="black"/>
</svg>
