<svg width="20" height="40" viewBox="0 0 20 40" fill="none" xmlns="http://www.w3.org/2000/svg">
<path d="M20 27.6183C20.0002 30.0085 19.3401 32.3476 18.0993 34.3533C16.8586 36.359 15.0903 37.9455 13.0078 38.9213C10.9254 39.8971 8.61797 40.2204 6.36402 39.8523C4.11008 39.4841 2.00602 38.4402 0.305871 36.8466C0.21635 36.7631 0.143398 36.662 0.0911812 36.549C0.0389642 36.436 0.00850492 36.3133 0.0015418 36.1879C-0.00542133 36.0626 0.0112477 35.937 0.0505985 35.8184C0.0899493 35.6998 0.151211 35.5905 0.230885 35.4967C0.310559 35.4029 0.407086 35.3264 0.514953 35.2717C0.62282 35.217 0.739916 35.1851 0.859555 35.1778C0.979194 35.1705 1.09903 35.188 1.21223 35.2292C1.32543 35.2704 1.42976 35.3346 1.51928 35.4181C2.72664 36.5524 4.17918 37.3619 5.75166 37.7769C7.32414 38.1919 8.96937 38.1999 10.5455 37.8003C12.1216 37.4007 13.5812 36.6053 14.7986 35.4829C16.016 34.3605 16.9546 32.9446 17.5334 31.3575C18.1122 29.7703 18.3138 28.0595 18.121 26.3724C17.9281 24.6854 17.3466 23.0729 16.4264 21.6738C15.5062 20.2748 14.2751 19.1312 12.8392 18.3418C11.4032 17.5524 9.80557 17.1407 8.18398 17.1424C8.01518 17.1424 7.84971 17.0931 7.70613 17.0002C7.56254 16.9072 7.4465 16.7741 7.37101 16.6159C7.29552 16.4578 7.26357 16.2807 7.27872 16.1045C7.29388 15.9284 7.35556 15.7601 7.45684 15.6186L17.2732 1.90471H0.912578C0.671516 1.90471 0.440327 1.80437 0.269871 1.62577C0.0994141 1.44717 0.00365337 1.20494 0.00365337 0.952355C0.00365337 0.699775 0.0994141 0.45754 0.269871 0.278939C0.440327 0.100337 0.671516 0 0.912578 0H19.0911C19.2599 0 19.4253 0.0492507 19.5689 0.142234C19.7125 0.235216 19.8286 0.368258 19.904 0.52645C19.9795 0.684641 20.0115 0.861733 19.9963 1.03788C19.9812 1.21403 19.9195 1.38228 19.8182 1.52377L9.90866 15.3686C12.712 15.806 15.2724 17.2829 17.1243 19.5309C18.9762 21.7789 19.9966 24.6487 20 27.6183Z" fill="black"/>
</svg>
