<svg width="48" height="48" viewBox="0 0 48 48" fill="none" xmlns="http://www.w3.org/2000/svg">
<g clip-path="url(#clip0_2183_238)">
<path fill-rule="evenodd" clip-rule="evenodd" d="M24 45.6C35.9292 45.6 45.6 35.9292 45.6 24C45.6 12.0708 35.9292 2.4 24 2.4C12.0708 2.4 2.4 12.0708 2.4 24C2.4 35.9292 12.0708 45.6 24 45.6ZM24 48C37.2552 48 48 37.2552 48 24C48 10.7448 37.2552 0 24 0C10.7448 0 0 10.7448 0 24C0 37.2552 10.7448 48 24 48Z" fill="black"/>
<path fill-rule="evenodd" clip-rule="evenodd" d="M36.8039 14.7107C37.04 14.924 37.1817 15.2223 37.1979 15.5401C37.2141 15.8578 37.1034 16.169 36.8903 16.4051L20.8631 34.1183L11.1719 24.8675C10.9543 24.6451 10.8316 24.3469 10.8296 24.0358C10.8277 23.7246 10.9467 23.4249 11.1615 23.1998C11.3763 22.9747 11.6702 22.8419 11.981 22.8293C12.2919 22.8167 12.5956 22.9254 12.8279 23.1323L20.7359 30.6803L35.1107 14.7959C35.2165 14.679 35.3443 14.5841 35.4867 14.5166C35.6292 14.4491 35.7836 14.4104 35.9411 14.4026C36.0985 14.3948 36.256 14.4181 36.4045 14.4712C36.5529 14.5243 36.6895 14.6061 36.8063 14.7119" fill="black"/>
</g>
<defs>
<clipPath id="clip0_2183_238">
<rect width="48" height="48" fill="white"/>
</clipPath>
</defs>
</svg>
