<svg width="40" height="40" viewBox="0 0 40 40" fill="none" xmlns="http://www.w3.org/2000/svg">
<path fill-rule="evenodd" clip-rule="evenodd" d="M20 38C29.941 38 38 29.941 38 20C38 10.059 29.941 2 20 2C10.059 2 2 10.059 2 20C2 29.941 10.059 38 20 38ZM20 40C31.046 40 40 31.046 40 20C40 8.954 31.046 0 20 0C8.954 0 0 8.954 0 20C0 31.046 8.954 40 20 40Z" fill="white"/>
<path fill-rule="evenodd" clip-rule="evenodd" d="M30.6701 12.259C30.8669 12.4367 30.985 12.6853 30.9985 12.9501C31.012 13.2149 30.9198 13.4742 30.7421 13.671L17.3861 28.432L9.31015 20.723C9.12881 20.5377 9.02654 20.2891 9.02492 20.0299C9.0233 19.7706 9.12246 19.5208 9.30148 19.3332C9.48049 19.1456 9.72537 19.0349 9.98445 19.0244C10.2435 19.014 10.4966 19.1045 10.6901 19.277L17.2801 25.567L29.2591 12.33C29.3473 12.2326 29.4538 12.1535 29.5725 12.0972C29.6913 12.041 29.8199 12.0087 29.9511 12.0022C30.0824 11.9957 30.2136 12.0151 30.3373 12.0594C30.461 12.1036 30.5748 12.1718 30.6721 12.26" fill="white"/>
</svg>
