<?xml version="1.0" encoding="UTF-8"?>
<svg xmlns="http://www.w3.org/2000/svg" xmlns:xlink="http://www.w3.org/1999/xlink" width="40px" height="40px" viewBox="0 0 40 40" version="1.1">
<g id="surface1">
<path style=" stroke:none;fill-rule:nonzero;fill:rgb(100%,100%,100%);fill-opacity:1;" d="M 38.683594 18.558594 L 26.859375 5.714844 C 23.832031 2.453125 19.726562 0.625 15.449219 0.628906 C 11.171875 0.632812 7.070312 2.46875 4.046875 5.730469 L 1.628906 8.414062 C 1.5625 8.484375 1.511719 8.570312 1.476562 8.664062 C 1.441406 8.753906 1.421875 8.855469 1.421875 8.957031 C 1.421875 9.054688 1.441406 9.15625 1.480469 9.25 C 1.515625 9.339844 1.570312 9.425781 1.636719 9.496094 C 1.703125 9.5625 1.78125 9.617188 1.871094 9.65625 C 1.957031 9.691406 2.050781 9.710938 2.140625 9.707031 C 2.234375 9.703125 2.328125 9.679688 2.414062 9.640625 C 2.496094 9.597656 2.574219 9.539062 2.636719 9.464844 L 5.042969 6.785156 C 6.1875 5.550781 7.507812 4.527344 8.960938 3.757812 L 17.972656 13.488281 L 0.644531 32.179688 C 0.449219 32.390625 0.292969 32.640625 0.1875 32.914062 C 0.0820312 33.191406 0.0273438 33.488281 0.0273438 33.785156 C 0.0273438 34.085938 0.0820312 34.378906 0.1875 34.65625 C 0.292969 34.933594 0.449219 35.183594 0.644531 35.394531 L 4.273438 39.300781 C 4.46875 39.511719 4.699219 39.679688 4.957031 39.796875 C 5.210938 39.910156 5.484375 39.96875 5.761719 39.96875 C 6.039062 39.96875 6.3125 39.910156 6.570312 39.796875 C 6.824219 39.679688 7.058594 39.511719 7.253906 39.300781 L 24.574219 20.605469 L 27.582031 23.855469 L 30.679688 27.195312 C 30.875 27.40625 31.105469 27.574219 31.363281 27.6875 C 31.617188 27.804688 31.890625 27.863281 32.167969 27.863281 C 32.445312 27.863281 32.71875 27.804688 32.976562 27.6875 C 33.230469 27.574219 33.464844 27.40625 33.660156 27.195312 L 38.6875 21.769531 C 39.082031 21.339844 39.304688 20.765625 39.304688 20.160156 C 39.300781 19.558594 39.082031 18.984375 38.683594 18.558594 Z M 6.253906 38.230469 C 6.1875 38.300781 6.113281 38.355469 6.027344 38.394531 C 5.941406 38.429688 5.851562 38.449219 5.757812 38.449219 C 5.664062 38.449219 5.574219 38.429688 5.488281 38.394531 C 5.402344 38.355469 5.328125 38.300781 5.261719 38.230469 L 1.636719 34.320312 C 1.574219 34.25 1.519531 34.164062 1.484375 34.074219 C 1.449219 33.980469 1.433594 33.882812 1.433594 33.785156 C 1.433594 33.683594 1.449219 33.585938 1.484375 33.496094 C 1.519531 33.402344 1.574219 33.320312 1.636719 33.25 L 14.054688 19.847656 L 18.671875 24.835938 Z M 24.078125 19 L 19.664062 23.761719 L 15.046875 18.78125 L 19.460938 14.015625 C 19.523438 13.945312 19.578125 13.863281 19.613281 13.769531 C 19.648438 13.679688 19.664062 13.582031 19.664062 13.480469 C 19.664062 13.382812 19.648438 13.285156 19.613281 13.191406 C 19.578125 13.101562 19.523438 13.015625 19.460938 12.945312 L 10.34375 3.109375 C 12.984375 2.058594 15.847656 1.847656 18.597656 2.496094 C 21.347656 3.144531 23.871094 4.628906 25.863281 6.777344 L 34.101562 15.730469 L 28.078125 22.25 L 25.070312 19 C 25.003906 18.929688 24.925781 18.875 24.839844 18.835938 C 24.757812 18.796875 24.664062 18.777344 24.574219 18.777344 C 24.480469 18.777344 24.390625 18.796875 24.304688 18.835938 C 24.21875 18.875 24.140625 18.929688 24.078125 19 Z M 37.691406 20.703125 L 32.664062 26.128906 C 32.597656 26.199219 32.519531 26.253906 32.4375 26.292969 C 32.351562 26.332031 32.257812 26.351562 32.167969 26.351562 C 32.074219 26.351562 31.984375 26.332031 31.898438 26.292969 C 31.8125 26.253906 31.738281 26.199219 31.671875 26.128906 L 29.070312 23.324219 L 35.101562 16.816406 L 37.691406 19.628906 C 37.820312 19.773438 37.894531 19.964844 37.894531 20.164062 C 37.894531 20.363281 37.820312 20.554688 37.691406 20.695312 Z M 37.691406 20.703125 "/>
</g>
</svg>
