<svg width="40" height="40" viewBox="0 0 29 48" fill="none" xmlns="http://www.w3.org/2000/svg">
<path d="M17.5933 21.6667H28.1667V17.7667H20.3233L15.99 10.5517C15.34 9.46835 14.17 8.73168 12.8267 8.73168C12.4367 8.73168 12.09 8.79668 11.7433 8.90502L0 12.5667V23.8334H3.9V15.8817L8.47167 14.4517L0 47.6667H3.9L10.1183 30.095L15.1667 36.8334V47.6667H19.0667V33.7784L13.6717 23.9417L15.2533 17.7234M17.3333 8.23335C19.5 8.23335 21.2333 6.50002 21.2333 4.33335C21.2333 2.16668 19.5 0.43335 17.3333 0.43335C15.1667 0.43335 13.4333 2.16668 13.4333 4.33335C13.4333 6.50002 15.1667 8.23335 17.3333 8.23335Z" fill="white"/>
</svg>
