<svg width="40" height="40" viewBox="0 0 40 40" fill="none" xmlns="http://www.w3.org/2000/svg">
<path d="M40 19.8639C40 20.093 39.9084 20.3126 39.7453 20.4746C39.5822 20.6366 39.3611 20.7276 39.1304 20.7276H14.783C14.5523 20.7276 14.3312 20.6366 14.1681 20.4746C14.005 20.3126 13.9134 20.093 13.9134 19.8639C13.9134 19.6349 14.005 19.4152 14.1681 19.2533C14.3312 19.0913 14.5523 19.0003 14.783 19.0003H39.1304C39.3611 19.0003 39.5822 19.0913 39.7453 19.2533C39.9084 19.4152 40 19.6349 40 19.8639ZM14.783 6.9096H39.1304C39.3611 6.9096 39.5822 6.81861 39.7453 6.65665C39.9084 6.49469 40 6.27502 40 6.04597C40 5.81693 39.9084 5.59726 39.7453 5.4353C39.5822 5.27334 39.3611 5.18235 39.1304 5.18235H14.783C14.5523 5.18235 14.3312 5.27334 14.1681 5.4353C14.005 5.59726 13.9134 5.81693 13.9134 6.04597C13.9134 6.27502 14.005 6.49469 14.1681 6.65665C14.3312 6.81861 14.5523 6.9096 14.783 6.9096ZM39.1304 32.8183H14.783C14.5523 32.8183 14.3312 32.9093 14.1681 33.0712C14.005 33.2332 13.9134 33.4528 13.9134 33.6819C13.9134 33.9109 14.005 34.1306 14.1681 34.2926C14.3312 34.4545 14.5523 34.5455 14.783 34.5455H39.1304C39.3611 34.5455 39.5822 34.4545 39.7453 34.2926C39.9084 34.1306 40 33.9109 40 33.6819C40 33.4528 39.9084 33.2332 39.7453 33.0712C39.5822 32.9093 39.3611 32.8183 39.1304 32.8183ZM1.25924 3.36443L3.47877 2.26115V14.6822C3.47877 14.9112 3.57038 15.1309 3.73346 15.2929C3.89653 15.4548 4.1177 15.5458 4.34832 15.5458C4.57894 15.5458 4.80012 15.4548 4.96319 15.2929C5.12626 15.1309 5.21788 14.9112 5.21788 14.6822V0.864241C5.21798 0.716955 5.18016 0.572089 5.108 0.443413C5.03585 0.314738 4.93176 0.206529 4.80562 0.129071C4.67949 0.0516135 4.5355 0.00748182 4.38736 0.000870606C4.23921 -0.00574061 4.09182 0.025388 3.9592 0.0912985L0.480986 1.81854C0.274581 1.92104 0.117627 2.10078 0.044652 2.31821C-0.0283231 2.53564 -0.0113417 2.77296 0.0918607 2.97796C0.195063 3.18295 0.376033 3.33884 0.594958 3.41131C0.813884 3.48379 1.05283 3.46693 1.25924 3.36443ZM7.82654 36.2728H2.60922L7.79393 29.3811C8.14828 28.9342 8.40799 28.4207 8.55742 27.8716C8.70685 27.3225 8.74293 26.749 8.66348 26.1856C8.5832 25.616 8.38775 25.0683 8.08888 24.5756C7.79001 24.0828 7.39391 23.6552 6.92437 23.3184C5.97863 22.6357 4.80377 22.3426 3.64545 22.5003C2.48714 22.6581 1.43507 23.2545 0.709243 24.1648C0.432469 24.516 0.212446 24.9079 0.0570786 25.3263C0.000929489 25.5354 0.0258417 25.7578 0.126885 25.9495C0.227928 26.1412 0.397741 26.2882 0.602721 26.3615C0.807701 26.4348 1.03291 26.429 1.23379 26.3452C1.43467 26.2615 1.59659 26.1059 1.68749 25.9093C1.78004 25.6593 1.91053 25.4249 2.07444 25.2141C2.52065 24.6565 3.16666 24.2919 3.87731 24.1966C4.58797 24.1012 5.30823 24.2824 5.88743 24.7024C6.16893 24.9035 6.40664 25.159 6.58631 25.4536C6.76599 25.7482 6.88393 26.0757 6.93307 26.4167C6.98047 26.7538 6.95848 27.097 6.86842 27.4254C6.77837 27.7539 6.62213 28.0607 6.40916 28.3274L0.174468 36.6204C0.0782002 36.7487 0.0197198 36.901 0.00555104 37.0604C-0.00861777 37.2198 0.0220822 37.38 0.0942266 37.5231C0.166371 37.6662 0.277123 37.7865 0.414125 37.8707C0.551128 37.955 0.708993 37.9997 0.870111 38H7.82654C8.05716 38 8.27833 37.909 8.4414 37.7471C8.60448 37.5851 8.69609 37.3654 8.69609 37.1364C8.69609 36.9073 8.60448 36.6877 8.4414 36.5257C8.27833 36.3637 8.05716 36.2728 7.82654 36.2728Z" fill="white"/>
</svg>
