<svg width="91" height="126" viewBox="0 0 91 126" fill="none" xmlns="http://www.w3.org/2000/svg">
<circle cx="45.1176" cy="45.1176" r="45.1176" fill="#FEDB99"/>
<path d="M27.3108 120.942V115.721H29.196L34.686 102.69H36.7784L42.2683 115.721H44.1328V120.942H42.4548L41.8747 118H29.5896L29.0095 120.942H27.3108ZM31.7027 115.721H39.7616L35.7218 106.067L31.7027 115.721ZM45.1433 112.324C45.1433 111.453 45.2883 110.652 45.5783 109.92C45.8684 109.175 46.2758 108.539 46.8006 108.014C47.3254 107.476 47.947 107.055 48.6651 106.751C49.3971 106.447 50.1844 106.295 51.0269 106.295C51.9108 106.295 52.6635 106.454 53.285 106.771C53.9203 107.075 54.4935 107.573 55.0045 108.263V106.564H57.2005V118H55.0045V116.343C54.4382 117.033 53.8444 117.53 53.2228 117.834C52.6152 118.124 51.8832 118.269 51.0269 118.269C50.1706 118.269 49.3833 118.124 48.6651 117.834C47.947 117.53 47.3254 117.116 46.8006 116.591C46.2758 116.053 45.8684 115.424 45.5783 114.706C45.2883 113.974 45.1433 113.18 45.1433 112.324ZM47.505 112.344C47.505 112.883 47.5948 113.387 47.7743 113.857C47.9677 114.312 48.2301 114.713 48.5616 115.058C48.9068 115.39 49.3074 115.652 49.7631 115.845C50.2327 116.025 50.7368 116.115 51.2755 116.115C51.8141 116.115 52.3044 116.025 52.7464 115.845C53.2021 115.652 53.5958 115.39 53.9272 115.058C54.2587 114.713 54.5142 114.305 54.6937 113.836C54.8733 113.366 54.9631 112.855 54.9631 112.303C54.9631 111.75 54.8664 111.239 54.673 110.77C54.4935 110.286 54.2311 109.879 53.8858 109.548C53.5543 109.202 53.1538 108.933 52.6842 108.74C52.2284 108.546 51.7243 108.45 51.1719 108.45C50.6471 108.45 50.1637 108.553 49.7217 108.76C49.2797 108.954 48.893 109.223 48.5616 109.568C48.2301 109.914 47.9677 110.328 47.7743 110.811C47.5948 111.281 47.505 111.792 47.505 112.344Z" fill="#BB8850"/>
<g clip-path="url(#clip0_2146_235)">
<path fill-rule="evenodd" clip-rule="evenodd" d="M45 66.6C56.9292 66.6 66.6 56.9292 66.6 45C66.6 33.0708 56.9292 23.4 45 23.4C33.0708 23.4 23.4 33.0708 23.4 45C23.4 56.9292 33.0708 66.6 45 66.6ZM45 69C58.2552 69 69 58.2552 69 45C69 31.7448 58.2552 21 45 21C31.7448 21 21 31.7448 21 45C21 58.2552 31.7448 69 45 69Z" fill="black"/>
<path fill-rule="evenodd" clip-rule="evenodd" d="M57.8039 35.7107C58.04 35.924 58.1817 36.2223 58.1979 36.5401C58.2141 36.8578 58.1034 37.169 57.8903 37.4051L41.8631 55.1183L32.1719 45.8675C31.9543 45.6451 31.8316 45.3469 31.8296 45.0358C31.8277 44.7246 31.9467 44.4249 32.1615 44.1998C32.3763 43.9747 32.6702 43.8419 32.981 43.8293C33.2919 43.8167 33.5956 43.9254 33.8279 44.1323L41.7359 51.6803L56.1107 35.7959C56.2165 35.679 56.3443 35.5841 56.4867 35.5166C56.6292 35.4491 56.7836 35.4104 56.9411 35.4026C57.0985 35.3948 57.256 35.4181 57.4045 35.4712C57.5529 35.5243 57.6895 35.6061 57.8063 35.7119" fill="black"/>
</g>
<defs>
<clipPath id="clip0_2146_235">
<rect width="48" height="48" fill="white" transform="translate(21 21)"/>
</clipPath>
</defs>
</svg>
